<mxfile host="app.diagrams.net" agent="Mozilla/5.0 (Windows NT 10.0; Win64; x64) AppleWebKit/537.36 (KHTML, like Gecko) Chrome/128.0.0.0 Safari/537.36 Edg/128.0.0.0" version="24.7.10">
  <diagram name="PÃ¡gina-1" id="otmPIla8MQj4O2eb2bmG">
    <mxGraphModel dx="4427" dy="2766" grid="1" gridSize="10" guides="1" tooltips="1" connect="1" arrows="1" fold="1" page="1" pageScale="1" pageWidth="827" pageHeight="1169" math="0" shadow="0">
      <root>
        <mxCell id="0" />
        <mxCell id="1" parent="0" />
        <mxCell id="BKr8RLlDopQfZSz1JglN-1" value="frequent_flyer_card" style="swimlane;fontStyle=0;childLayout=stackLayout;horizontal=1;startSize=26;fillColor=none;horizontalStack=0;resizeParent=1;resizeParentMax=0;resizeLast=0;collapsible=1;marginBottom=0;whiteSpace=wrap;html=1;" parent="1" vertex="1">
          <mxGeometry x="-430" y="20" width="140" height="104" as="geometry" />
        </mxCell>
        <mxCell id="BKr8RLlDopQfZSz1JglN-2" value="ffc_number" style="text;strokeColor=none;fillColor=none;align=left;verticalAlign=top;spacingLeft=4;spacingRight=4;overflow=hidden;rotatable=0;points=[[0,0.5],[1,0.5]];portConstraint=eastwest;whiteSpace=wrap;html=1;" parent="BKr8RLlDopQfZSz1JglN-1" vertex="1">
          <mxGeometry y="26" width="140" height="26" as="geometry" />
        </mxCell>
        <mxCell id="BKr8RLlDopQfZSz1JglN-3" value="milles" style="text;strokeColor=none;fillColor=none;align=left;verticalAlign=top;spacingLeft=4;spacingRight=4;overflow=hidden;rotatable=0;points=[[0,0.5],[1,0.5]];portConstraint=eastwest;whiteSpace=wrap;html=1;" parent="BKr8RLlDopQfZSz1JglN-1" vertex="1">
          <mxGeometry y="52" width="140" height="26" as="geometry" />
        </mxCell>
        <mxCell id="BKr8RLlDopQfZSz1JglN-4" value="meal_code" style="text;strokeColor=none;fillColor=none;align=left;verticalAlign=top;spacingLeft=4;spacingRight=4;overflow=hidden;rotatable=0;points=[[0,0.5],[1,0.5]];portConstraint=eastwest;whiteSpace=wrap;html=1;" parent="BKr8RLlDopQfZSz1JglN-1" vertex="1">
          <mxGeometry y="78" width="140" height="26" as="geometry" />
        </mxCell>
        <mxCell id="BKr8RLlDopQfZSz1JglN-5" value="pieces_of_luggage" style="swimlane;fontStyle=0;childLayout=stackLayout;horizontal=1;startSize=26;fillColor=none;horizontalStack=0;resizeParent=1;resizeParentMax=0;resizeLast=0;collapsible=1;marginBottom=0;whiteSpace=wrap;html=1;" parent="1" vertex="1">
          <mxGeometry x="-390.28" y="947" width="140" height="130" as="geometry" />
        </mxCell>
        <mxCell id="BKr8RLlDopQfZSz1JglN-6" value="id" style="text;strokeColor=none;fillColor=none;align=left;verticalAlign=top;spacingLeft=4;spacingRight=4;overflow=hidden;rotatable=0;points=[[0,0.5],[1,0.5]];portConstraint=eastwest;whiteSpace=wrap;html=1;" parent="BKr8RLlDopQfZSz1JglN-5" vertex="1">
          <mxGeometry y="26" width="140" height="26" as="geometry" />
        </mxCell>
        <mxCell id="BKr8RLlDopQfZSz1JglN-7" value="weight_of_luggages" style="text;strokeColor=none;fillColor=none;align=left;verticalAlign=top;spacingLeft=4;spacingRight=4;overflow=hidden;rotatable=0;points=[[0,0.5],[1,0.5]];portConstraint=eastwest;whiteSpace=wrap;html=1;" parent="BKr8RLlDopQfZSz1JglN-5" vertex="1">
          <mxGeometry y="52" width="140" height="26" as="geometry" />
        </mxCell>
        <mxCell id="SPeARo3MDbNv_OMqF6WF-40" value="amount_luggages" style="text;strokeColor=none;fillColor=none;align=left;verticalAlign=top;spacingLeft=4;spacingRight=4;overflow=hidden;rotatable=0;points=[[0,0.5],[1,0.5]];portConstraint=eastwest;whiteSpace=wrap;html=1;" parent="BKr8RLlDopQfZSz1JglN-5" vertex="1">
          <mxGeometry y="78" width="140" height="26" as="geometry" />
        </mxCell>
        <mxCell id="SPeARo3MDbNv_OMqF6WF-39" value="total_rate" style="text;strokeColor=none;fillColor=none;align=left;verticalAlign=top;spacingLeft=4;spacingRight=4;overflow=hidden;rotatable=0;points=[[0,0.5],[1,0.5]];portConstraint=eastwest;whiteSpace=wrap;html=1;" parent="BKr8RLlDopQfZSz1JglN-5" vertex="1">
          <mxGeometry y="104" width="140" height="26" as="geometry" />
        </mxCell>
        <mxCell id="BKr8RLlDopQfZSz1JglN-9" value="coupon" style="swimlane;fontStyle=0;childLayout=stackLayout;horizontal=1;startSize=26;fillColor=none;horizontalStack=0;resizeParent=1;resizeParentMax=0;resizeLast=0;collapsible=1;marginBottom=0;whiteSpace=wrap;html=1;" parent="1" vertex="1">
          <mxGeometry x="-390.28" y="720" width="140" height="156" as="geometry" />
        </mxCell>
        <mxCell id="BKr8RLlDopQfZSz1JglN-10" value="id" style="text;strokeColor=none;fillColor=none;align=left;verticalAlign=top;spacingLeft=4;spacingRight=4;overflow=hidden;rotatable=0;points=[[0,0.5],[1,0.5]];portConstraint=eastwest;whiteSpace=wrap;html=1;" parent="BKr8RLlDopQfZSz1JglN-9" vertex="1">
          <mxGeometry y="26" width="140" height="26" as="geometry" />
        </mxCell>
        <mxCell id="BKr8RLlDopQfZSz1JglN-11" value="date_of_redemption" style="text;strokeColor=none;fillColor=none;align=left;verticalAlign=top;spacingLeft=4;spacingRight=4;overflow=hidden;rotatable=0;points=[[0,0.5],[1,0.5]];portConstraint=eastwest;whiteSpace=wrap;html=1;" parent="BKr8RLlDopQfZSz1JglN-9" vertex="1">
          <mxGeometry y="52" width="140" height="26" as="geometry" />
        </mxCell>
        <mxCell id="BKr8RLlDopQfZSz1JglN-12" value="class" style="text;strokeColor=none;fillColor=none;align=left;verticalAlign=top;spacingLeft=4;spacingRight=4;overflow=hidden;rotatable=0;points=[[0,0.5],[1,0.5]];portConstraint=eastwest;whiteSpace=wrap;html=1;" parent="BKr8RLlDopQfZSz1JglN-9" vertex="1">
          <mxGeometry y="78" width="140" height="26" as="geometry" />
        </mxCell>
        <mxCell id="BKr8RLlDopQfZSz1JglN-13" value="stand_by" style="text;strokeColor=none;fillColor=none;align=left;verticalAlign=top;spacingLeft=4;spacingRight=4;overflow=hidden;rotatable=0;points=[[0,0.5],[1,0.5]];portConstraint=eastwest;whiteSpace=wrap;html=1;" parent="BKr8RLlDopQfZSz1JglN-9" vertex="1">
          <mxGeometry y="104" width="140" height="26" as="geometry" />
        </mxCell>
        <mxCell id="BKr8RLlDopQfZSz1JglN-14" value="meal_code" style="text;strokeColor=none;fillColor=none;align=left;verticalAlign=top;spacingLeft=4;spacingRight=4;overflow=hidden;rotatable=0;points=[[0,0.5],[1,0.5]];portConstraint=eastwest;whiteSpace=wrap;html=1;" parent="BKr8RLlDopQfZSz1JglN-9" vertex="1">
          <mxGeometry y="130" width="140" height="26" as="geometry" />
        </mxCell>
        <mxCell id="BKr8RLlDopQfZSz1JglN-15" value="Seat" style="swimlane;fontStyle=0;childLayout=stackLayout;horizontal=1;startSize=26;fillColor=none;horizontalStack=0;resizeParent=1;resizeParentMax=0;resizeLast=0;collapsible=1;marginBottom=0;whiteSpace=wrap;html=1;" parent="1" vertex="1">
          <mxGeometry x="320" y="350" width="140" height="104" as="geometry" />
        </mxCell>
        <mxCell id="BKr8RLlDopQfZSz1JglN-16" value="id" style="text;strokeColor=none;fillColor=none;align=left;verticalAlign=top;spacingLeft=4;spacingRight=4;overflow=hidden;rotatable=0;points=[[0,0.5],[1,0.5]];portConstraint=eastwest;whiteSpace=wrap;html=1;" parent="BKr8RLlDopQfZSz1JglN-15" vertex="1">
          <mxGeometry y="26" width="140" height="26" as="geometry" />
        </mxCell>
        <mxCell id="BKr8RLlDopQfZSz1JglN-17" value="Size" style="text;strokeColor=none;fillColor=none;align=left;verticalAlign=top;spacingLeft=4;spacingRight=4;overflow=hidden;rotatable=0;points=[[0,0.5],[1,0.5]];portConstraint=eastwest;whiteSpace=wrap;html=1;" parent="BKr8RLlDopQfZSz1JglN-15" vertex="1">
          <mxGeometry y="52" width="140" height="26" as="geometry" />
        </mxCell>
        <mxCell id="BKr8RLlDopQfZSz1JglN-18" value="Number" style="text;strokeColor=none;fillColor=none;align=left;verticalAlign=top;spacingLeft=4;spacingRight=4;overflow=hidden;rotatable=0;points=[[0,0.5],[1,0.5]];portConstraint=eastwest;whiteSpace=wrap;html=1;" parent="BKr8RLlDopQfZSz1JglN-15" vertex="1">
          <mxGeometry y="78" width="140" height="26" as="geometry" />
        </mxCell>
        <mxCell id="BKr8RLlDopQfZSz1JglN-19" value="ticket" style="swimlane;fontStyle=0;childLayout=stackLayout;horizontal=1;startSize=26;fillColor=none;horizontalStack=0;resizeParent=1;resizeParentMax=0;resizeLast=0;collapsible=1;marginBottom=0;whiteSpace=wrap;html=1;" parent="1" vertex="1">
          <mxGeometry x="-670" y="600" width="140" height="78" as="geometry" />
        </mxCell>
        <mxCell id="BKr8RLlDopQfZSz1JglN-20" value="number" style="text;strokeColor=none;fillColor=none;align=left;verticalAlign=top;spacingLeft=4;spacingRight=4;overflow=hidden;rotatable=0;points=[[0,0.5],[1,0.5]];portConstraint=eastwest;whiteSpace=wrap;html=1;" parent="BKr8RLlDopQfZSz1JglN-19" vertex="1">
          <mxGeometry y="26" width="140" height="26" as="geometry" />
        </mxCell>
        <mxCell id="BKr8RLlDopQfZSz1JglN-21" value="ticketing_code" style="text;strokeColor=none;fillColor=none;align=left;verticalAlign=top;spacingLeft=4;spacingRight=4;overflow=hidden;rotatable=0;points=[[0,0.5],[1,0.5]];portConstraint=eastwest;whiteSpace=wrap;html=1;" parent="BKr8RLlDopQfZSz1JglN-19" vertex="1">
          <mxGeometry y="52" width="140" height="26" as="geometry" />
        </mxCell>
        <mxCell id="BKr8RLlDopQfZSz1JglN-22" value="Customer" style="swimlane;fontStyle=0;childLayout=stackLayout;horizontal=1;startSize=26;fillColor=none;horizontalStack=0;resizeParent=1;resizeParentMax=0;resizeLast=0;collapsible=1;marginBottom=0;whiteSpace=wrap;html=1;" parent="1" vertex="1">
          <mxGeometry x="-480" y="190" width="140" height="104" as="geometry" />
        </mxCell>
        <mxCell id="BKr8RLlDopQfZSz1JglN-23" value="id" style="text;strokeColor=none;fillColor=none;align=left;verticalAlign=top;spacingLeft=4;spacingRight=4;overflow=hidden;rotatable=0;points=[[0,0.5],[1,0.5]];portConstraint=eastwest;whiteSpace=wrap;html=1;" parent="BKr8RLlDopQfZSz1JglN-22" vertex="1">
          <mxGeometry y="26" width="140" height="26" as="geometry" />
        </mxCell>
        <mxCell id="BKr8RLlDopQfZSz1JglN-24" value="first_name" style="text;strokeColor=none;fillColor=none;align=left;verticalAlign=top;spacingLeft=4;spacingRight=4;overflow=hidden;rotatable=0;points=[[0,0.5],[1,0.5]];portConstraint=eastwest;whiteSpace=wrap;html=1;" parent="BKr8RLlDopQfZSz1JglN-22" vertex="1">
          <mxGeometry y="52" width="140" height="26" as="geometry" />
        </mxCell>
        <mxCell id="BKr8RLlDopQfZSz1JglN-25" value="last_name" style="text;strokeColor=none;fillColor=none;align=left;verticalAlign=top;spacingLeft=4;spacingRight=4;overflow=hidden;rotatable=0;points=[[0,0.5],[1,0.5]];portConstraint=eastwest;whiteSpace=wrap;html=1;" parent="BKr8RLlDopQfZSz1JglN-22" vertex="1">
          <mxGeometry y="78" width="140" height="26" as="geometry" />
        </mxCell>
        <mxCell id="BKr8RLlDopQfZSz1JglN-27" value="plane_model" style="swimlane;fontStyle=0;childLayout=stackLayout;horizontal=1;startSize=26;fillColor=none;horizontalStack=0;resizeParent=1;resizeParentMax=0;resizeLast=0;collapsible=1;marginBottom=0;whiteSpace=wrap;html=1;" parent="1" vertex="1">
          <mxGeometry x="200" y="110" width="140" height="104" as="geometry" />
        </mxCell>
        <mxCell id="BKr8RLlDopQfZSz1JglN-28" value="id" style="text;strokeColor=none;fillColor=none;align=left;verticalAlign=top;spacingLeft=4;spacingRight=4;overflow=hidden;rotatable=0;points=[[0,0.5],[1,0.5]];portConstraint=eastwest;whiteSpace=wrap;html=1;" parent="BKr8RLlDopQfZSz1JglN-27" vertex="1">
          <mxGeometry y="26" width="140" height="26" as="geometry" />
        </mxCell>
        <mxCell id="BKr8RLlDopQfZSz1JglN-29" value="description_plane" style="text;strokeColor=none;fillColor=none;align=left;verticalAlign=top;spacingLeft=4;spacingRight=4;overflow=hidden;rotatable=0;points=[[0,0.5],[1,0.5]];portConstraint=eastwest;whiteSpace=wrap;html=1;" parent="BKr8RLlDopQfZSz1JglN-27" vertex="1">
          <mxGeometry y="52" width="140" height="26" as="geometry" />
        </mxCell>
        <mxCell id="BKr8RLlDopQfZSz1JglN-30" value="graphic" style="text;strokeColor=none;fillColor=none;align=left;verticalAlign=top;spacingLeft=4;spacingRight=4;overflow=hidden;rotatable=0;points=[[0,0.5],[1,0.5]];portConstraint=eastwest;whiteSpace=wrap;html=1;" parent="BKr8RLlDopQfZSz1JglN-27" vertex="1">
          <mxGeometry y="78" width="140" height="26" as="geometry" />
        </mxCell>
        <mxCell id="BKr8RLlDopQfZSz1JglN-32" value="Airplane" style="swimlane;fontStyle=0;childLayout=stackLayout;horizontal=1;startSize=26;fillColor=none;horizontalStack=0;resizeParent=1;resizeParentMax=0;resizeLast=0;collapsible=1;marginBottom=0;whiteSpace=wrap;html=1;" parent="1" vertex="1">
          <mxGeometry x="200" y="-126" width="140" height="104" as="geometry" />
        </mxCell>
        <mxCell id="BKr8RLlDopQfZSz1JglN-33" value="id" style="text;strokeColor=none;fillColor=none;align=left;verticalAlign=top;spacingLeft=4;spacingRight=4;overflow=hidden;rotatable=0;points=[[0,0.5],[1,0.5]];portConstraint=eastwest;whiteSpace=wrap;html=1;" parent="BKr8RLlDopQfZSz1JglN-32" vertex="1">
          <mxGeometry y="26" width="140" height="26" as="geometry" />
        </mxCell>
        <mxCell id="BKr8RLlDopQfZSz1JglN-34" value="Registration_Number" style="text;strokeColor=none;fillColor=none;align=left;verticalAlign=top;spacingLeft=4;spacingRight=4;overflow=hidden;rotatable=0;points=[[0,0.5],[1,0.5]];portConstraint=eastwest;whiteSpace=wrap;html=1;" parent="BKr8RLlDopQfZSz1JglN-32" vertex="1">
          <mxGeometry y="52" width="140" height="26" as="geometry" />
        </mxCell>
        <mxCell id="BKr8RLlDopQfZSz1JglN-35" value="Status" style="text;strokeColor=none;fillColor=none;align=left;verticalAlign=top;spacingLeft=4;spacingRight=4;overflow=hidden;rotatable=0;points=[[0,0.5],[1,0.5]];portConstraint=eastwest;whiteSpace=wrap;html=1;" parent="BKr8RLlDopQfZSz1JglN-32" vertex="1">
          <mxGeometry y="78" width="140" height="26" as="geometry" />
        </mxCell>
        <mxCell id="BKr8RLlDopQfZSz1JglN-36" value="available_seat" style="swimlane;fontStyle=0;childLayout=stackLayout;horizontal=1;startSize=26;fillColor=none;horizontalStack=0;resizeParent=1;resizeParentMax=0;resizeLast=0;collapsible=1;marginBottom=0;whiteSpace=wrap;html=1;" parent="1" vertex="1">
          <mxGeometry x="-60" y="572" width="140" height="52" as="geometry" />
        </mxCell>
        <mxCell id="BKr8RLlDopQfZSz1JglN-37" value="id" style="text;strokeColor=none;fillColor=none;align=left;verticalAlign=top;spacingLeft=4;spacingRight=4;overflow=hidden;rotatable=0;points=[[0,0.5],[1,0.5]];portConstraint=eastwest;whiteSpace=wrap;html=1;" parent="BKr8RLlDopQfZSz1JglN-36" vertex="1">
          <mxGeometry y="26" width="140" height="26" as="geometry" />
        </mxCell>
        <mxCell id="BKr8RLlDopQfZSz1JglN-38" value="status_FT" style="swimlane;fontStyle=0;childLayout=stackLayout;horizontal=1;startSize=26;fillColor=none;horizontalStack=0;resizeParent=1;resizeParentMax=0;resizeLast=0;collapsible=1;marginBottom=0;whiteSpace=wrap;html=1;" parent="1" vertex="1">
          <mxGeometry x="-60" y="710" width="140" height="78" as="geometry" />
        </mxCell>
        <mxCell id="BKr8RLlDopQfZSz1JglN-39" value="id" style="text;strokeColor=none;fillColor=none;align=left;verticalAlign=top;spacingLeft=4;spacingRight=4;overflow=hidden;rotatable=0;points=[[0,0.5],[1,0.5]];portConstraint=eastwest;whiteSpace=wrap;html=1;" parent="BKr8RLlDopQfZSz1JglN-38" vertex="1">
          <mxGeometry y="26" width="140" height="26" as="geometry" />
        </mxCell>
        <mxCell id="BKr8RLlDopQfZSz1JglN-40" value="description_status" style="text;strokeColor=none;fillColor=none;align=left;verticalAlign=top;spacingLeft=4;spacingRight=4;overflow=hidden;rotatable=0;points=[[0,0.5],[1,0.5]];portConstraint=eastwest;whiteSpace=wrap;html=1;" parent="BKr8RLlDopQfZSz1JglN-38" vertex="1">
          <mxGeometry y="52" width="140" height="26" as="geometry" />
        </mxCell>
        <mxCell id="BKr8RLlDopQfZSz1JglN-41" value="flight" style="swimlane;fontStyle=0;childLayout=stackLayout;horizontal=1;startSize=26;fillColor=none;horizontalStack=0;resizeParent=1;resizeParentMax=0;resizeLast=0;collapsible=1;marginBottom=0;whiteSpace=wrap;html=1;" parent="1" vertex="1">
          <mxGeometry x="-60" y="335.28" width="140" height="156" as="geometry" />
        </mxCell>
        <mxCell id="BKr8RLlDopQfZSz1JglN-42" value="id" style="text;strokeColor=none;fillColor=none;align=left;verticalAlign=top;spacingLeft=4;spacingRight=4;overflow=hidden;rotatable=0;points=[[0,0.5],[1,0.5]];portConstraint=eastwest;whiteSpace=wrap;html=1;" parent="BKr8RLlDopQfZSz1JglN-41" vertex="1">
          <mxGeometry y="26" width="140" height="26" as="geometry" />
        </mxCell>
        <mxCell id="BKr8RLlDopQfZSz1JglN-43" value="boarding_time" style="text;strokeColor=none;fillColor=none;align=left;verticalAlign=top;spacingLeft=4;spacingRight=4;overflow=hidden;rotatable=0;points=[[0,0.5],[1,0.5]];portConstraint=eastwest;whiteSpace=wrap;html=1;" parent="BKr8RLlDopQfZSz1JglN-41" vertex="1">
          <mxGeometry y="52" width="140" height="26" as="geometry" />
        </mxCell>
        <mxCell id="BKr8RLlDopQfZSz1JglN-44" value="flight_date" style="text;strokeColor=none;fillColor=none;align=left;verticalAlign=top;spacingLeft=4;spacingRight=4;overflow=hidden;rotatable=0;points=[[0,0.5],[1,0.5]];portConstraint=eastwest;whiteSpace=wrap;html=1;" parent="BKr8RLlDopQfZSz1JglN-41" vertex="1">
          <mxGeometry y="78" width="140" height="26" as="geometry" />
        </mxCell>
        <mxCell id="BKr8RLlDopQfZSz1JglN-45" value="gate" style="text;strokeColor=none;fillColor=none;align=left;verticalAlign=top;spacingLeft=4;spacingRight=4;overflow=hidden;rotatable=0;points=[[0,0.5],[1,0.5]];portConstraint=eastwest;whiteSpace=wrap;html=1;" parent="BKr8RLlDopQfZSz1JglN-41" vertex="1">
          <mxGeometry y="104" width="140" height="26" as="geometry" />
        </mxCell>
        <mxCell id="BKr8RLlDopQfZSz1JglN-46" value="check_in_counter" style="text;strokeColor=none;fillColor=none;align=left;verticalAlign=top;spacingLeft=4;spacingRight=4;overflow=hidden;rotatable=0;points=[[0,0.5],[1,0.5]];portConstraint=eastwest;whiteSpace=wrap;html=1;" parent="BKr8RLlDopQfZSz1JglN-41" vertex="1">
          <mxGeometry y="130" width="140" height="26" as="geometry" />
        </mxCell>
        <mxCell id="BKr8RLlDopQfZSz1JglN-47" value="flight_number" style="swimlane;fontStyle=0;childLayout=stackLayout;horizontal=1;startSize=26;fillColor=none;horizontalStack=0;resizeParent=1;resizeParentMax=0;resizeLast=0;collapsible=1;marginBottom=0;whiteSpace=wrap;html=1;" parent="1" vertex="1">
          <mxGeometry x="-70" y="94" width="140" height="156" as="geometry" />
        </mxCell>
        <mxCell id="BKr8RLlDopQfZSz1JglN-48" value="id" style="text;strokeColor=none;fillColor=none;align=left;verticalAlign=top;spacingLeft=4;spacingRight=4;overflow=hidden;rotatable=0;points=[[0,0.5],[1,0.5]];portConstraint=eastwest;whiteSpace=wrap;html=1;" parent="BKr8RLlDopQfZSz1JglN-47" vertex="1">
          <mxGeometry y="26" width="140" height="26" as="geometry" />
        </mxCell>
        <mxCell id="BKr8RLlDopQfZSz1JglN-49" value="departure_time" style="text;strokeColor=none;fillColor=none;align=left;verticalAlign=top;spacingLeft=4;spacingRight=4;overflow=hidden;rotatable=0;points=[[0,0.5],[1,0.5]];portConstraint=eastwest;whiteSpace=wrap;html=1;" parent="BKr8RLlDopQfZSz1JglN-47" vertex="1">
          <mxGeometry y="52" width="140" height="26" as="geometry" />
        </mxCell>
        <mxCell id="BKr8RLlDopQfZSz1JglN-50" value="description_flight" style="text;strokeColor=none;fillColor=none;align=left;verticalAlign=top;spacingLeft=4;spacingRight=4;overflow=hidden;rotatable=0;points=[[0,0.5],[1,0.5]];portConstraint=eastwest;whiteSpace=wrap;html=1;" parent="BKr8RLlDopQfZSz1JglN-47" vertex="1">
          <mxGeometry y="78" width="140" height="26" as="geometry" />
        </mxCell>
        <mxCell id="BKr8RLlDopQfZSz1JglN-51" value="type_flight" style="text;strokeColor=none;fillColor=none;align=left;verticalAlign=top;spacingLeft=4;spacingRight=4;overflow=hidden;rotatable=0;points=[[0,0.5],[1,0.5]];portConstraint=eastwest;whiteSpace=wrap;html=1;" parent="BKr8RLlDopQfZSz1JglN-47" vertex="1">
          <mxGeometry y="104" width="140" height="26" as="geometry" />
        </mxCell>
        <mxCell id="BKr8RLlDopQfZSz1JglN-52" value="airline" style="text;strokeColor=none;fillColor=none;align=left;verticalAlign=top;spacingLeft=4;spacingRight=4;overflow=hidden;rotatable=0;points=[[0,0.5],[1,0.5]];portConstraint=eastwest;whiteSpace=wrap;html=1;" parent="BKr8RLlDopQfZSz1JglN-47" vertex="1">
          <mxGeometry y="130" width="140" height="26" as="geometry" />
        </mxCell>
        <mxCell id="BKr8RLlDopQfZSz1JglN-53" value="airport" style="swimlane;fontStyle=0;childLayout=stackLayout;horizontal=1;startSize=26;fillColor=none;horizontalStack=0;resizeParent=1;resizeParentMax=0;resizeLast=0;collapsible=1;marginBottom=0;whiteSpace=wrap;html=1;" parent="1" vertex="1">
          <mxGeometry x="-70" y="-107" width="140" height="78" as="geometry" />
        </mxCell>
        <mxCell id="BKr8RLlDopQfZSz1JglN-54" value="id" style="text;strokeColor=none;fillColor=none;align=left;verticalAlign=top;spacingLeft=4;spacingRight=4;overflow=hidden;rotatable=0;points=[[0,0.5],[1,0.5]];portConstraint=eastwest;whiteSpace=wrap;html=1;" parent="BKr8RLlDopQfZSz1JglN-53" vertex="1">
          <mxGeometry y="26" width="140" height="26" as="geometry" />
        </mxCell>
        <mxCell id="BKr8RLlDopQfZSz1JglN-55" value="name_airport" style="text;strokeColor=none;fillColor=none;align=left;verticalAlign=top;spacingLeft=4;spacingRight=4;overflow=hidden;rotatable=0;points=[[0,0.5],[1,0.5]];portConstraint=eastwest;whiteSpace=wrap;html=1;" parent="BKr8RLlDopQfZSz1JglN-53" vertex="1">
          <mxGeometry y="52" width="140" height="26" as="geometry" />
        </mxCell>
        <mxCell id="BKr8RLlDopQfZSz1JglN-68" value="City" style="swimlane;fontStyle=0;childLayout=stackLayout;horizontal=1;startSize=26;fillColor=none;horizontalStack=0;resizeParent=1;resizeParentMax=0;resizeLast=0;collapsible=1;marginBottom=0;whiteSpace=wrap;html=1;" parent="1" vertex="1">
          <mxGeometry x="-70" y="-289" width="140" height="78" as="geometry" />
        </mxCell>
        <mxCell id="BKr8RLlDopQfZSz1JglN-69" value="id" style="text;strokeColor=none;fillColor=none;align=left;verticalAlign=top;spacingLeft=4;spacingRight=4;overflow=hidden;rotatable=0;points=[[0,0.5],[1,0.5]];portConstraint=eastwest;whiteSpace=wrap;html=1;" parent="BKr8RLlDopQfZSz1JglN-68" vertex="1">
          <mxGeometry y="26" width="140" height="26" as="geometry" />
        </mxCell>
        <mxCell id="BKr8RLlDopQfZSz1JglN-70" value="name_city" style="text;strokeColor=none;fillColor=none;align=left;verticalAlign=top;spacingLeft=4;spacingRight=4;overflow=hidden;rotatable=0;points=[[0,0.5],[1,0.5]];portConstraint=eastwest;whiteSpace=wrap;html=1;" parent="BKr8RLlDopQfZSz1JglN-68" vertex="1">
          <mxGeometry y="52" width="140" height="26" as="geometry" />
        </mxCell>
        <mxCell id="BKr8RLlDopQfZSz1JglN-71" value="country" style="swimlane;fontStyle=0;childLayout=stackLayout;horizontal=1;startSize=26;fillColor=none;horizontalStack=0;resizeParent=1;resizeParentMax=0;resizeLast=0;collapsible=1;marginBottom=0;whiteSpace=wrap;html=1;" parent="1" vertex="1">
          <mxGeometry x="200" y="-289" width="140" height="78" as="geometry" />
        </mxCell>
        <mxCell id="BKr8RLlDopQfZSz1JglN-72" value="id" style="text;strokeColor=none;fillColor=none;align=left;verticalAlign=top;spacingLeft=4;spacingRight=4;overflow=hidden;rotatable=0;points=[[0,0.5],[1,0.5]];portConstraint=eastwest;whiteSpace=wrap;html=1;" parent="BKr8RLlDopQfZSz1JglN-71" vertex="1">
          <mxGeometry y="26" width="140" height="26" as="geometry" />
        </mxCell>
        <mxCell id="BKr8RLlDopQfZSz1JglN-73" value="name_country" style="text;strokeColor=none;fillColor=none;align=left;verticalAlign=top;spacingLeft=4;spacingRight=4;overflow=hidden;rotatable=0;points=[[0,0.5],[1,0.5]];portConstraint=eastwest;whiteSpace=wrap;html=1;" parent="BKr8RLlDopQfZSz1JglN-71" vertex="1">
          <mxGeometry y="52" width="140" height="26" as="geometry" />
        </mxCell>
        <mxCell id="BKr8RLlDopQfZSz1JglN-85" value="ticket_category" style="swimlane;fontStyle=0;childLayout=stackLayout;horizontal=1;startSize=26;fillColor=none;horizontalStack=0;resizeParent=1;resizeParentMax=0;resizeLast=0;collapsible=1;marginBottom=0;whiteSpace=wrap;html=1;" parent="1" vertex="1">
          <mxGeometry x="-750" y="750" width="140" height="78" as="geometry" />
        </mxCell>
        <mxCell id="BKr8RLlDopQfZSz1JglN-86" value="id" style="text;strokeColor=none;fillColor=none;align=left;verticalAlign=top;spacingLeft=4;spacingRight=4;overflow=hidden;rotatable=0;points=[[0,0.5],[1,0.5]];portConstraint=eastwest;whiteSpace=wrap;html=1;" parent="BKr8RLlDopQfZSz1JglN-85" vertex="1">
          <mxGeometry y="26" width="140" height="26" as="geometry" />
        </mxCell>
        <mxCell id="BKr8RLlDopQfZSz1JglN-87" value="category_name" style="text;strokeColor=none;fillColor=none;align=left;verticalAlign=top;spacingLeft=4;spacingRight=4;overflow=hidden;rotatable=0;points=[[0,0.5],[1,0.5]];portConstraint=eastwest;whiteSpace=wrap;html=1;" parent="BKr8RLlDopQfZSz1JglN-85" vertex="1">
          <mxGeometry y="52" width="140" height="26" as="geometry" />
        </mxCell>
        <mxCell id="BKr8RLlDopQfZSz1JglN-113" value="Booking" style="swimlane;fontStyle=0;childLayout=stackLayout;horizontal=1;startSize=26;fillColor=none;horizontalStack=0;resizeParent=1;resizeParentMax=0;resizeLast=0;collapsible=1;marginBottom=0;whiteSpace=wrap;html=1;" parent="1" vertex="1">
          <mxGeometry x="-300" y="334" width="140" height="78" as="geometry" />
        </mxCell>
        <mxCell id="BKr8RLlDopQfZSz1JglN-114" value="id" style="text;strokeColor=none;fillColor=none;align=left;verticalAlign=top;spacingLeft=4;spacingRight=4;overflow=hidden;rotatable=0;points=[[0,0.5],[1,0.5]];portConstraint=eastwest;whiteSpace=wrap;html=1;" parent="BKr8RLlDopQfZSz1JglN-113" vertex="1">
          <mxGeometry y="26" width="140" height="26" as="geometry" />
        </mxCell>
        <mxCell id="BKr8RLlDopQfZSz1JglN-115" value="BookingDate&amp;nbsp;" style="text;strokeColor=none;fillColor=none;align=left;verticalAlign=top;spacingLeft=4;spacingRight=4;overflow=hidden;rotatable=0;points=[[0,0.5],[1,0.5]];portConstraint=eastwest;whiteSpace=wrap;html=1;" parent="BKr8RLlDopQfZSz1JglN-113" vertex="1">
          <mxGeometry y="52" width="140" height="26" as="geometry" />
        </mxCell>
        <mxCell id="pwogzNSkjw2bM80aaKxA-2" value="" style="endArrow=none;html=1;rounded=0;entryX=0;entryY=-0.077;entryDx=0;entryDy=0;entryPerimeter=0;exitX=1;exitY=0.538;exitDx=0;exitDy=0;exitPerimeter=0;" parent="1" source="BKr8RLlDopQfZSz1JglN-49" target="BKr8RLlDopQfZSz1JglN-29" edge="1">
          <mxGeometry width="50" height="50" relative="1" as="geometry">
            <mxPoint x="-240" y="160" as="sourcePoint" />
            <mxPoint x="-190" y="110" as="targetPoint" />
          </mxGeometry>
        </mxCell>
        <mxCell id="pwogzNSkjw2bM80aaKxA-25" value="" style="endArrow=none;html=1;rounded=0;entryX=0;entryY=0.5;entryDx=0;entryDy=0;exitX=1;exitY=0.5;exitDx=0;exitDy=0;" parent="1" source="BKr8RLlDopQfZSz1JglN-69" target="BKr8RLlDopQfZSz1JglN-72" edge="1">
          <mxGeometry relative="1" as="geometry">
            <mxPoint x="80" y="-290" as="sourcePoint" />
            <mxPoint x="-80" y="-231" as="targetPoint" />
            <Array as="points" />
          </mxGeometry>
        </mxCell>
        <mxCell id="pwogzNSkjw2bM80aaKxA-26" value="&lt;font style=&quot;vertical-align: inherit;&quot;&gt;&lt;font style=&quot;vertical-align: inherit;&quot;&gt;&lt;font style=&quot;vertical-align: inherit;&quot;&gt;&lt;font style=&quot;vertical-align: inherit;&quot;&gt;+*..1&lt;/font&gt;&lt;/font&gt;&lt;/font&gt;&lt;/font&gt;" style="resizable=0;html=1;whiteSpace=wrap;align=left;verticalAlign=bottom;" parent="pwogzNSkjw2bM80aaKxA-25" connectable="0" vertex="1">
          <mxGeometry x="-1" relative="1" as="geometry">
            <mxPoint x="10" as="offset" />
          </mxGeometry>
        </mxCell>
        <mxCell id="pwogzNSkjw2bM80aaKxA-27" value="&lt;font style=&quot;vertical-align: inherit;&quot;&gt;&lt;font style=&quot;vertical-align: inherit;&quot;&gt;&lt;font style=&quot;vertical-align: inherit;&quot;&gt;&lt;font style=&quot;vertical-align: inherit;&quot;&gt;+1..1&lt;/font&gt;&lt;/font&gt;&lt;/font&gt;&lt;/font&gt;" style="resizable=0;html=1;whiteSpace=wrap;align=right;verticalAlign=bottom;" parent="pwogzNSkjw2bM80aaKxA-25" connectable="0" vertex="1">
          <mxGeometry x="1" relative="1" as="geometry" />
        </mxCell>
        <mxCell id="pwogzNSkjw2bM80aaKxA-37" value="" style="endArrow=none;html=1;rounded=0;exitX=0.5;exitY=0;exitDx=0;exitDy=0;entryX=0.483;entryY=1.043;entryDx=0;entryDy=0;entryPerimeter=0;" parent="1" source="BKr8RLlDopQfZSz1JglN-53" target="BKr8RLlDopQfZSz1JglN-70" edge="1">
          <mxGeometry relative="1" as="geometry">
            <mxPoint x="-350" y="-200" as="sourcePoint" />
            <mxPoint x="-40" y="-191" as="targetPoint" />
          </mxGeometry>
        </mxCell>
        <mxCell id="pwogzNSkjw2bM80aaKxA-38" value="&lt;font style=&quot;vertical-align: inherit;&quot;&gt;&lt;font style=&quot;vertical-align: inherit;&quot;&gt;&lt;font style=&quot;vertical-align: inherit;&quot;&gt;&lt;font style=&quot;vertical-align: inherit;&quot;&gt;+*..1&lt;/font&gt;&lt;/font&gt;&lt;/font&gt;&lt;/font&gt;" style="resizable=0;html=1;whiteSpace=wrap;align=left;verticalAlign=bottom;" parent="pwogzNSkjw2bM80aaKxA-37" connectable="0" vertex="1">
          <mxGeometry x="-1" relative="1" as="geometry">
            <mxPoint x="-40" y="-10" as="offset" />
          </mxGeometry>
        </mxCell>
        <mxCell id="pwogzNSkjw2bM80aaKxA-39" value="&lt;font style=&quot;vertical-align: inherit;&quot;&gt;&lt;font style=&quot;vertical-align: inherit;&quot;&gt;&lt;font style=&quot;vertical-align: inherit;&quot;&gt;&lt;font style=&quot;vertical-align: inherit;&quot;&gt;+1..1&lt;/font&gt;&lt;/font&gt;&lt;/font&gt;&lt;/font&gt;" style="resizable=0;html=1;whiteSpace=wrap;align=right;verticalAlign=bottom;" parent="pwogzNSkjw2bM80aaKxA-37" connectable="0" vertex="1">
          <mxGeometry x="1" relative="1" as="geometry">
            <mxPoint x="-8" y="21" as="offset" />
          </mxGeometry>
        </mxCell>
        <mxCell id="pwogzNSkjw2bM80aaKxA-40" value="" style="endArrow=none;html=1;rounded=0;exitX=0.25;exitY=0;exitDx=0;exitDy=0;" parent="1" source="BKr8RLlDopQfZSz1JglN-47" edge="1">
          <mxGeometry relative="1" as="geometry">
            <mxPoint x="-28" y="84" as="sourcePoint" />
            <mxPoint x="-35" y="-27" as="targetPoint" />
          </mxGeometry>
        </mxCell>
        <mxCell id="pwogzNSkjw2bM80aaKxA-41" value="&lt;font style=&quot;vertical-align: inherit;&quot;&gt;&lt;font style=&quot;vertical-align: inherit;&quot;&gt;&lt;font style=&quot;vertical-align: inherit;&quot;&gt;&lt;font style=&quot;vertical-align: inherit;&quot;&gt;+1..*&lt;/font&gt;&lt;/font&gt;&lt;/font&gt;&lt;/font&gt;" style="resizable=0;html=1;whiteSpace=wrap;align=left;verticalAlign=bottom;" parent="pwogzNSkjw2bM80aaKxA-40" connectable="0" vertex="1">
          <mxGeometry x="-1" relative="1" as="geometry">
            <mxPoint x="-40" y="-10" as="offset" />
          </mxGeometry>
        </mxCell>
        <mxCell id="pwogzNSkjw2bM80aaKxA-42" value="&lt;font style=&quot;vertical-align: inherit;&quot;&gt;&lt;font style=&quot;vertical-align: inherit;&quot;&gt;&lt;font style=&quot;vertical-align: inherit;&quot;&gt;&lt;font style=&quot;vertical-align: inherit;&quot;&gt;+1..1&lt;/font&gt;&lt;/font&gt;&lt;/font&gt;&lt;/font&gt;" style="resizable=0;html=1;whiteSpace=wrap;align=right;verticalAlign=bottom;" parent="pwogzNSkjw2bM80aaKxA-40" connectable="0" vertex="1">
          <mxGeometry x="1" relative="1" as="geometry">
            <mxPoint x="-10" y="20" as="offset" />
          </mxGeometry>
        </mxCell>
        <mxCell id="pwogzNSkjw2bM80aaKxA-43" value="" style="endArrow=none;html=1;rounded=0;exitX=0.799;exitY=-0.017;exitDx=0;exitDy=0;exitPerimeter=0;entryX=0.786;entryY=1.135;entryDx=0;entryDy=0;entryPerimeter=0;" parent="1" source="BKr8RLlDopQfZSz1JglN-47" target="BKr8RLlDopQfZSz1JglN-55" edge="1">
          <mxGeometry relative="1" as="geometry">
            <mxPoint x="22" y="94" as="sourcePoint" />
            <mxPoint x="40" y="-26" as="targetPoint" />
          </mxGeometry>
        </mxCell>
        <mxCell id="pwogzNSkjw2bM80aaKxA-44" value="&lt;font style=&quot;vertical-align: inherit;&quot;&gt;&lt;font style=&quot;vertical-align: inherit;&quot;&gt;&lt;font style=&quot;vertical-align: inherit;&quot;&gt;&lt;font style=&quot;vertical-align: inherit;&quot;&gt;+1..*&lt;/font&gt;&lt;/font&gt;&lt;/font&gt;&lt;/font&gt;" style="resizable=0;html=1;whiteSpace=wrap;align=left;verticalAlign=bottom;" parent="pwogzNSkjw2bM80aaKxA-43" connectable="0" vertex="1">
          <mxGeometry x="-1" relative="1" as="geometry">
            <mxPoint x="-40" y="-10" as="offset" />
          </mxGeometry>
        </mxCell>
        <mxCell id="pwogzNSkjw2bM80aaKxA-45" value="&lt;font style=&quot;vertical-align: inherit;&quot;&gt;&lt;font style=&quot;vertical-align: inherit;&quot;&gt;&lt;font style=&quot;vertical-align: inherit;&quot;&gt;&lt;font style=&quot;vertical-align: inherit;&quot;&gt;+1..1&lt;/font&gt;&lt;/font&gt;&lt;/font&gt;&lt;/font&gt;" style="resizable=0;html=1;whiteSpace=wrap;align=right;verticalAlign=bottom;" parent="pwogzNSkjw2bM80aaKxA-43" connectable="0" vertex="1">
          <mxGeometry x="1" relative="1" as="geometry">
            <mxPoint x="-5" y="19" as="offset" />
          </mxGeometry>
        </mxCell>
        <mxCell id="pwogzNSkjw2bM80aaKxA-46" value="" style="endArrow=none;html=1;rounded=0;exitX=0.548;exitY=0.032;exitDx=0;exitDy=0;entryX=0.558;entryY=1.077;entryDx=0;entryDy=0;entryPerimeter=0;exitPerimeter=0;" parent="1" source="BKr8RLlDopQfZSz1JglN-27" target="BKr8RLlDopQfZSz1JglN-35" edge="1">
          <mxGeometry relative="1" as="geometry">
            <mxPoint x="10" y="-70" as="sourcePoint" />
            <mxPoint x="8" y="-171" as="targetPoint" />
          </mxGeometry>
        </mxCell>
        <mxCell id="pwogzNSkjw2bM80aaKxA-47" value="&lt;font style=&quot;vertical-align: inherit;&quot;&gt;&lt;font style=&quot;vertical-align: inherit;&quot;&gt;&lt;font style=&quot;vertical-align: inherit;&quot;&gt;&lt;font style=&quot;vertical-align: inherit;&quot;&gt;+*..0&lt;/font&gt;&lt;/font&gt;&lt;/font&gt;&lt;/font&gt;" style="resizable=0;html=1;whiteSpace=wrap;align=left;verticalAlign=bottom;" parent="pwogzNSkjw2bM80aaKxA-46" connectable="0" vertex="1">
          <mxGeometry x="-1" relative="1" as="geometry">
            <mxPoint x="-40" y="-10" as="offset" />
          </mxGeometry>
        </mxCell>
        <mxCell id="pwogzNSkjw2bM80aaKxA-48" value="&lt;font style=&quot;vertical-align: inherit;&quot;&gt;&lt;font style=&quot;vertical-align: inherit;&quot;&gt;&lt;font style=&quot;vertical-align: inherit;&quot;&gt;&lt;font style=&quot;vertical-align: inherit;&quot;&gt;+1..1&lt;/font&gt;&lt;/font&gt;&lt;/font&gt;&lt;/font&gt;" style="resizable=0;html=1;whiteSpace=wrap;align=right;verticalAlign=bottom;" parent="pwogzNSkjw2bM80aaKxA-46" connectable="0" vertex="1">
          <mxGeometry x="1" relative="1" as="geometry">
            <mxPoint x="-8" y="21" as="offset" />
          </mxGeometry>
        </mxCell>
        <mxCell id="pwogzNSkjw2bM80aaKxA-49" value="" style="endArrow=none;html=1;rounded=0;entryX=0.503;entryY=1.06;entryDx=0;entryDy=0;entryPerimeter=0;" parent="1" source="BKr8RLlDopQfZSz1JglN-15" target="BKr8RLlDopQfZSz1JglN-30" edge="1">
          <mxGeometry relative="1" as="geometry">
            <mxPoint x="282" y="351" as="sourcePoint" />
            <mxPoint x="280" y="230" as="targetPoint" />
            <Array as="points">
              <mxPoint x="390" y="240" />
              <mxPoint x="270" y="240" />
            </Array>
          </mxGeometry>
        </mxCell>
        <mxCell id="pwogzNSkjw2bM80aaKxA-50" value="&lt;font style=&quot;vertical-align: inherit;&quot;&gt;&lt;font style=&quot;vertical-align: inherit;&quot;&gt;&lt;font style=&quot;vertical-align: inherit;&quot;&gt;&lt;font style=&quot;vertical-align: inherit;&quot;&gt;+*..0&lt;/font&gt;&lt;/font&gt;&lt;/font&gt;&lt;/font&gt;" style="resizable=0;html=1;whiteSpace=wrap;align=left;verticalAlign=bottom;" parent="pwogzNSkjw2bM80aaKxA-49" connectable="0" vertex="1">
          <mxGeometry x="-1" relative="1" as="geometry">
            <mxPoint x="-40" y="-10" as="offset" />
          </mxGeometry>
        </mxCell>
        <mxCell id="pwogzNSkjw2bM80aaKxA-51" value="&lt;font style=&quot;vertical-align: inherit;&quot;&gt;&lt;font style=&quot;vertical-align: inherit;&quot;&gt;&lt;font style=&quot;vertical-align: inherit;&quot;&gt;&lt;font style=&quot;vertical-align: inherit;&quot;&gt;+1..1&lt;/font&gt;&lt;/font&gt;&lt;/font&gt;&lt;/font&gt;" style="resizable=0;html=1;whiteSpace=wrap;align=right;verticalAlign=bottom;" parent="pwogzNSkjw2bM80aaKxA-49" connectable="0" vertex="1">
          <mxGeometry x="1" relative="1" as="geometry">
            <mxPoint x="-8" y="21" as="offset" />
          </mxGeometry>
        </mxCell>
        <mxCell id="pwogzNSkjw2bM80aaKxA-52" value="" style="endArrow=none;html=1;rounded=0;entryX=0.533;entryY=1.137;entryDx=0;entryDy=0;entryPerimeter=0;exitX=1.009;exitY=0.89;exitDx=0;exitDy=0;exitPerimeter=0;" parent="1" source="BKr8RLlDopQfZSz1JglN-39" target="BKr8RLlDopQfZSz1JglN-18" edge="1">
          <mxGeometry relative="1" as="geometry">
            <mxPoint x="90" y="780" as="sourcePoint" />
            <mxPoint x="230" y="630" as="targetPoint" />
            <Array as="points">
              <mxPoint x="395" y="760" />
            </Array>
          </mxGeometry>
        </mxCell>
        <mxCell id="pwogzNSkjw2bM80aaKxA-53" value="&lt;font style=&quot;vertical-align: inherit;&quot;&gt;&lt;font style=&quot;vertical-align: inherit;&quot;&gt;&lt;font style=&quot;vertical-align: inherit;&quot;&gt;&lt;font style=&quot;vertical-align: inherit;&quot;&gt;+1.1&lt;/font&gt;&lt;/font&gt;&lt;/font&gt;&lt;/font&gt;" style="resizable=0;html=1;whiteSpace=wrap;align=left;verticalAlign=bottom;" parent="pwogzNSkjw2bM80aaKxA-52" connectable="0" vertex="1">
          <mxGeometry x="-1" relative="1" as="geometry">
            <mxPoint x="7" y="-10" as="offset" />
          </mxGeometry>
        </mxCell>
        <mxCell id="pwogzNSkjw2bM80aaKxA-54" value="&lt;font style=&quot;vertical-align: inherit;&quot;&gt;&lt;font style=&quot;vertical-align: inherit;&quot;&gt;&lt;font style=&quot;vertical-align: inherit;&quot;&gt;&lt;font style=&quot;vertical-align: inherit;&quot;&gt;+1..*&lt;/font&gt;&lt;/font&gt;&lt;/font&gt;&lt;/font&gt;" style="resizable=0;html=1;whiteSpace=wrap;align=right;verticalAlign=bottom;" parent="pwogzNSkjw2bM80aaKxA-52" connectable="0" vertex="1">
          <mxGeometry x="1" relative="1" as="geometry">
            <mxPoint x="-8" y="21" as="offset" />
          </mxGeometry>
        </mxCell>
        <mxCell id="pwogzNSkjw2bM80aaKxA-55" value="" style="endArrow=none;html=1;rounded=0;entryX=0.499;entryY=1.077;entryDx=0;entryDy=0;entryPerimeter=0;exitX=0.5;exitY=0;exitDx=0;exitDy=0;" parent="1" source="BKr8RLlDopQfZSz1JglN-36" target="BKr8RLlDopQfZSz1JglN-46" edge="1">
          <mxGeometry relative="1" as="geometry">
            <mxPoint x="20" y="608" as="sourcePoint" />
            <mxPoint x="20" y="460" as="targetPoint" />
          </mxGeometry>
        </mxCell>
        <mxCell id="pwogzNSkjw2bM80aaKxA-56" value="&lt;font style=&quot;vertical-align: inherit;&quot;&gt;&lt;font style=&quot;vertical-align: inherit;&quot;&gt;&lt;font style=&quot;vertical-align: inherit;&quot;&gt;&lt;font style=&quot;vertical-align: inherit;&quot;&gt;+0..*&lt;/font&gt;&lt;/font&gt;&lt;/font&gt;&lt;/font&gt;" style="resizable=0;html=1;whiteSpace=wrap;align=left;verticalAlign=bottom;" parent="pwogzNSkjw2bM80aaKxA-55" connectable="0" vertex="1">
          <mxGeometry x="-1" relative="1" as="geometry">
            <mxPoint x="-40" y="-10" as="offset" />
          </mxGeometry>
        </mxCell>
        <mxCell id="pwogzNSkjw2bM80aaKxA-57" value="&lt;font style=&quot;vertical-align: inherit;&quot;&gt;&lt;font style=&quot;vertical-align: inherit;&quot;&gt;&lt;font style=&quot;vertical-align: inherit;&quot;&gt;&lt;font style=&quot;vertical-align: inherit;&quot;&gt;+1..1&lt;/font&gt;&lt;/font&gt;&lt;/font&gt;&lt;/font&gt;" style="resizable=0;html=1;whiteSpace=wrap;align=right;verticalAlign=bottom;" parent="pwogzNSkjw2bM80aaKxA-55" connectable="0" vertex="1">
          <mxGeometry x="1" relative="1" as="geometry">
            <mxPoint x="-8" y="21" as="offset" />
          </mxGeometry>
        </mxCell>
        <mxCell id="pwogzNSkjw2bM80aaKxA-58" value="" style="endArrow=none;html=1;rounded=0;entryX=0.42;entryY=1.148;entryDx=0;entryDy=0;entryPerimeter=0;exitX=1;exitY=0.5;exitDx=0;exitDy=0;" parent="1" source="BKr8RLlDopQfZSz1JglN-36" target="BKr8RLlDopQfZSz1JglN-18" edge="1">
          <mxGeometry relative="1" as="geometry">
            <mxPoint x="160" y="658" as="sourcePoint" />
            <mxPoint x="160" y="510" as="targetPoint" />
            <Array as="points">
              <mxPoint x="160" y="600" />
              <mxPoint x="160" y="730" />
              <mxPoint x="380" y="730" />
              <mxPoint x="380" y="480" />
            </Array>
          </mxGeometry>
        </mxCell>
        <mxCell id="pwogzNSkjw2bM80aaKxA-59" value="&lt;font style=&quot;vertical-align: inherit;&quot;&gt;&lt;font style=&quot;vertical-align: inherit;&quot;&gt;&lt;font style=&quot;vertical-align: inherit;&quot;&gt;&lt;font style=&quot;vertical-align: inherit;&quot;&gt;+*..0&lt;/font&gt;&lt;/font&gt;&lt;/font&gt;&lt;/font&gt;" style="resizable=0;html=1;whiteSpace=wrap;align=left;verticalAlign=bottom;" parent="pwogzNSkjw2bM80aaKxA-58" connectable="0" vertex="1">
          <mxGeometry x="-1" relative="1" as="geometry">
            <mxPoint x="-30" y="-10" as="offset" />
          </mxGeometry>
        </mxCell>
        <mxCell id="pwogzNSkjw2bM80aaKxA-60" value="&lt;font style=&quot;vertical-align: inherit;&quot;&gt;&lt;font style=&quot;vertical-align: inherit;&quot;&gt;&lt;font style=&quot;vertical-align: inherit;&quot;&gt;&lt;font style=&quot;vertical-align: inherit;&quot;&gt;+1..1&lt;/font&gt;&lt;/font&gt;&lt;/font&gt;&lt;/font&gt;" style="resizable=0;html=1;whiteSpace=wrap;align=right;verticalAlign=bottom;" parent="pwogzNSkjw2bM80aaKxA-58" connectable="0" vertex="1">
          <mxGeometry x="1" relative="1" as="geometry">
            <mxPoint x="41" y="22" as="offset" />
          </mxGeometry>
        </mxCell>
        <mxCell id="pwogzNSkjw2bM80aaKxA-61" value="" style="endArrow=none;html=1;rounded=0;entryX=0;entryY=1;entryDx=0;entryDy=0;entryPerimeter=0;exitX=1;exitY=0;exitDx=0;exitDy=0;" parent="1" source="BKr8RLlDopQfZSz1JglN-9" target="BKr8RLlDopQfZSz1JglN-46" edge="1">
          <mxGeometry relative="1" as="geometry">
            <mxPoint x="-150.87" y="584" as="sourcePoint" />
            <mxPoint x="-150.87" y="436" as="targetPoint" />
            <Array as="points">
              <mxPoint x="-120" y="720" />
              <mxPoint x="-120" y="610" />
              <mxPoint x="-120" y="490" />
            </Array>
          </mxGeometry>
        </mxCell>
        <mxCell id="pwogzNSkjw2bM80aaKxA-62" value="&lt;font style=&quot;vertical-align: inherit;&quot;&gt;&lt;font style=&quot;vertical-align: inherit;&quot;&gt;&lt;font style=&quot;vertical-align: inherit;&quot;&gt;&lt;font style=&quot;vertical-align: inherit;&quot;&gt;+*..0&lt;/font&gt;&lt;/font&gt;&lt;/font&gt;&lt;/font&gt;" style="resizable=0;html=1;whiteSpace=wrap;align=left;verticalAlign=bottom;" parent="pwogzNSkjw2bM80aaKxA-61" connectable="0" vertex="1">
          <mxGeometry x="-1" relative="1" as="geometry">
            <mxPoint x="-10" y="-10" as="offset" />
          </mxGeometry>
        </mxCell>
        <mxCell id="pwogzNSkjw2bM80aaKxA-63" value="&lt;font style=&quot;vertical-align: inherit;&quot;&gt;&lt;font style=&quot;vertical-align: inherit;&quot;&gt;&lt;font style=&quot;vertical-align: inherit;&quot;&gt;&lt;font style=&quot;vertical-align: inherit;&quot;&gt;+1..1&lt;/font&gt;&lt;/font&gt;&lt;/font&gt;&lt;/font&gt;" style="resizable=0;html=1;whiteSpace=wrap;align=right;verticalAlign=bottom;" parent="pwogzNSkjw2bM80aaKxA-61" connectable="0" vertex="1">
          <mxGeometry x="1" relative="1" as="geometry">
            <mxPoint x="-20" as="offset" />
          </mxGeometry>
        </mxCell>
        <mxCell id="pwogzNSkjw2bM80aaKxA-65" value="" style="endArrow=none;html=1;rounded=0;entryX=0;entryY=0.5;entryDx=0;entryDy=0;exitX=1;exitY=0.5;exitDx=0;exitDy=0;" parent="1" source="BKr8RLlDopQfZSz1JglN-11" target="BKr8RLlDopQfZSz1JglN-36" edge="1">
          <mxGeometry relative="1" as="geometry">
            <mxPoint x="-150.87" y="710" as="sourcePoint" />
            <mxPoint x="-150.87" y="562" as="targetPoint" />
            <Array as="points">
              <mxPoint x="-100" y="785" />
              <mxPoint x="-100" y="598" />
            </Array>
          </mxGeometry>
        </mxCell>
        <mxCell id="pwogzNSkjw2bM80aaKxA-66" value="+0..1" style="resizable=0;html=1;whiteSpace=wrap;align=left;verticalAlign=bottom;" parent="pwogzNSkjw2bM80aaKxA-65" connectable="0" vertex="1">
          <mxGeometry x="-1" relative="1" as="geometry">
            <mxPoint x="10" y="-8" as="offset" />
          </mxGeometry>
        </mxCell>
        <mxCell id="pwogzNSkjw2bM80aaKxA-67" value="&lt;font style=&quot;vertical-align: inherit;&quot;&gt;&lt;font style=&quot;vertical-align: inherit;&quot;&gt;&lt;font style=&quot;vertical-align: inherit;&quot;&gt;&lt;font style=&quot;vertical-align: inherit;&quot;&gt;+0..1&lt;/font&gt;&lt;/font&gt;&lt;/font&gt;&lt;/font&gt;" style="resizable=0;html=1;whiteSpace=wrap;align=right;verticalAlign=bottom;" parent="pwogzNSkjw2bM80aaKxA-65" connectable="0" vertex="1">
          <mxGeometry x="1" relative="1" as="geometry">
            <mxPoint x="-10" y="-6" as="offset" />
          </mxGeometry>
        </mxCell>
        <mxCell id="pwogzNSkjw2bM80aaKxA-68" value="" style="endArrow=none;html=1;rounded=0;exitX=0.163;exitY=-0.003;exitDx=0;exitDy=0;entryX=1;entryY=0.5;entryDx=0;entryDy=0;exitPerimeter=0;" parent="1" target="BKr8RLlDopQfZSz1JglN-20" edge="1">
          <mxGeometry relative="1" as="geometry">
            <mxPoint x="-322.46000000000004" y="720.0019999999997" as="sourcePoint" />
            <mxPoint x="-485" y="639.47" as="targetPoint" />
            <Array as="points">
              <mxPoint x="-322" y="639.47" />
            </Array>
          </mxGeometry>
        </mxCell>
        <mxCell id="pwogzNSkjw2bM80aaKxA-69" value="&lt;font style=&quot;vertical-align: inherit;&quot;&gt;&lt;font style=&quot;vertical-align: inherit;&quot;&gt;&lt;font style=&quot;vertical-align: inherit;&quot;&gt;&lt;font style=&quot;vertical-align: inherit;&quot;&gt;+*..1&lt;/font&gt;&lt;/font&gt;&lt;/font&gt;&lt;/font&gt;" style="resizable=0;html=1;whiteSpace=wrap;align=left;verticalAlign=bottom;" parent="pwogzNSkjw2bM80aaKxA-68" connectable="0" vertex="1">
          <mxGeometry x="-1" relative="1" as="geometry">
            <mxPoint y="-3" as="offset" />
          </mxGeometry>
        </mxCell>
        <mxCell id="pwogzNSkjw2bM80aaKxA-70" value="&lt;font style=&quot;vertical-align: inherit;&quot;&gt;&lt;font style=&quot;vertical-align: inherit;&quot;&gt;&lt;font style=&quot;vertical-align: inherit;&quot;&gt;&lt;font style=&quot;vertical-align: inherit;&quot;&gt;+1..1&lt;/font&gt;&lt;/font&gt;&lt;/font&gt;&lt;/font&gt;" style="resizable=0;html=1;whiteSpace=wrap;align=right;verticalAlign=bottom;" parent="pwogzNSkjw2bM80aaKxA-68" connectable="0" vertex="1">
          <mxGeometry x="1" relative="1" as="geometry">
            <mxPoint x="30" y="14" as="offset" />
          </mxGeometry>
        </mxCell>
        <mxCell id="pwogzNSkjw2bM80aaKxA-74" value="" style="endArrow=none;html=1;rounded=0;entryX=0.491;entryY=1.115;entryDx=0;entryDy=0;entryPerimeter=0;exitX=0.5;exitY=0;exitDx=0;exitDy=0;" parent="1" source="BKr8RLlDopQfZSz1JglN-5" target="BKr8RLlDopQfZSz1JglN-14" edge="1">
          <mxGeometry relative="1" as="geometry">
            <mxPoint x="-251.70999999999995" y="1035" as="sourcePoint" />
            <mxPoint x="-251.70999999999995" y="887" as="targetPoint" />
          </mxGeometry>
        </mxCell>
        <mxCell id="pwogzNSkjw2bM80aaKxA-75" value="&lt;font style=&quot;vertical-align: inherit;&quot;&gt;&lt;font style=&quot;vertical-align: inherit;&quot;&gt;&lt;font style=&quot;vertical-align: inherit;&quot;&gt;&lt;font style=&quot;vertical-align: inherit;&quot;&gt;+*..0&lt;/font&gt;&lt;/font&gt;&lt;/font&gt;&lt;/font&gt;" style="resizable=0;html=1;whiteSpace=wrap;align=left;verticalAlign=bottom;" parent="pwogzNSkjw2bM80aaKxA-74" connectable="0" vertex="1">
          <mxGeometry x="-1" relative="1" as="geometry">
            <mxPoint x="-30" as="offset" />
          </mxGeometry>
        </mxCell>
        <mxCell id="pwogzNSkjw2bM80aaKxA-76" value="&lt;font style=&quot;vertical-align: inherit;&quot;&gt;&lt;font style=&quot;vertical-align: inherit;&quot;&gt;&lt;font style=&quot;vertical-align: inherit;&quot;&gt;&lt;font style=&quot;vertical-align: inherit;&quot;&gt;+1..1&lt;/font&gt;&lt;/font&gt;&lt;/font&gt;&lt;/font&gt;" style="resizable=0;html=1;whiteSpace=wrap;align=right;verticalAlign=bottom;" parent="pwogzNSkjw2bM80aaKxA-74" connectable="0" vertex="1">
          <mxGeometry x="1" relative="1" as="geometry">
            <mxPoint x="1" y="18" as="offset" />
          </mxGeometry>
        </mxCell>
        <mxCell id="pwogzNSkjw2bM80aaKxA-77" value="" style="endArrow=none;html=1;rounded=0;entryX=0.5;entryY=1.046;entryDx=0;entryDy=0;entryPerimeter=0;exitX=0;exitY=0.5;exitDx=0;exitDy=0;" parent="1" source="BKr8RLlDopQfZSz1JglN-114" target="BKr8RLlDopQfZSz1JglN-25" edge="1">
          <mxGeometry relative="1" as="geometry">
            <mxPoint x="-410" y="400" as="sourcePoint" />
            <mxPoint x="-400" y="320" as="targetPoint" />
            <Array as="points">
              <mxPoint x="-410" y="373" />
            </Array>
          </mxGeometry>
        </mxCell>
        <mxCell id="pwogzNSkjw2bM80aaKxA-78" value="&lt;font style=&quot;vertical-align: inherit;&quot;&gt;&lt;font style=&quot;vertical-align: inherit;&quot;&gt;&lt;font style=&quot;vertical-align: inherit;&quot;&gt;&lt;font style=&quot;vertical-align: inherit;&quot;&gt;+*..1&lt;/font&gt;&lt;/font&gt;&lt;/font&gt;&lt;/font&gt;" style="resizable=0;html=1;whiteSpace=wrap;align=left;verticalAlign=bottom;" parent="pwogzNSkjw2bM80aaKxA-77" connectable="0" vertex="1">
          <mxGeometry x="-1" relative="1" as="geometry">
            <mxPoint x="-40" y="-10" as="offset" />
          </mxGeometry>
        </mxCell>
        <mxCell id="pwogzNSkjw2bM80aaKxA-79" value="&lt;font style=&quot;vertical-align: inherit;&quot;&gt;&lt;font style=&quot;vertical-align: inherit;&quot;&gt;&lt;font style=&quot;vertical-align: inherit;&quot;&gt;&lt;font style=&quot;vertical-align: inherit;&quot;&gt;+1..1&lt;/font&gt;&lt;/font&gt;&lt;/font&gt;&lt;/font&gt;" style="resizable=0;html=1;whiteSpace=wrap;align=right;verticalAlign=bottom;" parent="pwogzNSkjw2bM80aaKxA-77" connectable="0" vertex="1">
          <mxGeometry x="1" relative="1" as="geometry">
            <mxPoint x="-8" y="21" as="offset" />
          </mxGeometry>
        </mxCell>
        <mxCell id="pwogzNSkjw2bM80aaKxA-80" value="" style="endArrow=none;html=1;rounded=0;entryX=0.42;entryY=1.09;entryDx=0;entryDy=0;entryPerimeter=0;" parent="1" target="BKr8RLlDopQfZSz1JglN-21" edge="1">
          <mxGeometry relative="1" as="geometry">
            <mxPoint x="-677" y="749" as="sourcePoint" />
            <mxPoint x="-620" y="680" as="targetPoint" />
            <Array as="points">
              <mxPoint x="-677" y="700" />
              <mxPoint x="-611" y="700" />
            </Array>
          </mxGeometry>
        </mxCell>
        <mxCell id="pwogzNSkjw2bM80aaKxA-81" value="&lt;font style=&quot;vertical-align: inherit;&quot;&gt;&lt;font style=&quot;vertical-align: inherit;&quot;&gt;&lt;font style=&quot;vertical-align: inherit;&quot;&gt;&lt;font style=&quot;vertical-align: inherit;&quot;&gt;+1..1&lt;/font&gt;&lt;/font&gt;&lt;/font&gt;&lt;/font&gt;" style="resizable=0;html=1;whiteSpace=wrap;align=left;verticalAlign=bottom;" parent="pwogzNSkjw2bM80aaKxA-80" connectable="0" vertex="1">
          <mxGeometry x="-1" relative="1" as="geometry">
            <mxPoint y="1" as="offset" />
          </mxGeometry>
        </mxCell>
        <mxCell id="pwogzNSkjw2bM80aaKxA-82" value="&lt;font style=&quot;vertical-align: inherit;&quot;&gt;&lt;font style=&quot;vertical-align: inherit;&quot;&gt;&lt;font style=&quot;vertical-align: inherit;&quot;&gt;&lt;font style=&quot;vertical-align: inherit;&quot;&gt;+1..*&lt;/font&gt;&lt;/font&gt;&lt;/font&gt;&lt;/font&gt;" style="resizable=0;html=1;whiteSpace=wrap;align=right;verticalAlign=bottom;" parent="pwogzNSkjw2bM80aaKxA-80" connectable="0" vertex="1">
          <mxGeometry x="1" relative="1" as="geometry">
            <mxPoint x="-9" y="19" as="offset" />
          </mxGeometry>
        </mxCell>
        <mxCell id="pwogzNSkjw2bM80aaKxA-86" value="" style="endArrow=none;html=1;rounded=0;exitX=0.835;exitY=0.008;exitDx=0;exitDy=0;exitPerimeter=0;entryX=0.491;entryY=1.054;entryDx=0;entryDy=0;entryPerimeter=0;" parent="1" source="BKr8RLlDopQfZSz1JglN-22" target="BKr8RLlDopQfZSz1JglN-4" edge="1">
          <mxGeometry relative="1" as="geometry">
            <mxPoint x="-470" y="140" as="sourcePoint" />
            <mxPoint x="-320" y="120" as="targetPoint" />
            <Array as="points" />
          </mxGeometry>
        </mxCell>
        <mxCell id="pwogzNSkjw2bM80aaKxA-87" value="&lt;font style=&quot;vertical-align: inherit;&quot;&gt;&lt;font style=&quot;vertical-align: inherit;&quot;&gt;&lt;font style=&quot;vertical-align: inherit;&quot;&gt;&lt;font style=&quot;vertical-align: inherit;&quot;&gt;+1..1&lt;/font&gt;&lt;/font&gt;&lt;/font&gt;&lt;/font&gt;" style="resizable=0;html=1;whiteSpace=wrap;align=left;verticalAlign=bottom;" parent="pwogzNSkjw2bM80aaKxA-86" connectable="0" vertex="1">
          <mxGeometry x="-1" relative="1" as="geometry">
            <mxPoint x="-43" y="-7" as="offset" />
          </mxGeometry>
        </mxCell>
        <mxCell id="pwogzNSkjw2bM80aaKxA-88" value="&lt;font style=&quot;vertical-align: inherit;&quot;&gt;&lt;font style=&quot;vertical-align: inherit;&quot;&gt;&lt;font style=&quot;vertical-align: inherit;&quot;&gt;&lt;font style=&quot;vertical-align: inherit;&quot;&gt;+0..1.&lt;/font&gt;&lt;/font&gt;&lt;/font&gt;&lt;/font&gt;" style="resizable=0;html=1;whiteSpace=wrap;align=right;verticalAlign=bottom;" parent="pwogzNSkjw2bM80aaKxA-86" connectable="0" vertex="1">
          <mxGeometry x="1" relative="1" as="geometry">
            <mxPoint x="-10" y="27" as="offset" />
          </mxGeometry>
        </mxCell>
        <mxCell id="pwogzNSkjw2bM80aaKxA-98" value="" style="endArrow=none;html=1;rounded=0;entryX=0;entryY=0.5;entryDx=0;entryDy=0;exitX=1;exitY=0.5;exitDx=0;exitDy=0;" parent="1" source="BKr8RLlDopQfZSz1JglN-115" target="BKr8RLlDopQfZSz1JglN-43" edge="1">
          <mxGeometry relative="1" as="geometry">
            <mxPoint x="-240" y="543" as="sourcePoint" />
            <mxPoint x="-60" y="500" as="targetPoint" />
          </mxGeometry>
        </mxCell>
        <mxCell id="pwogzNSkjw2bM80aaKxA-99" value="&lt;font style=&quot;vertical-align: inherit;&quot;&gt;&lt;font style=&quot;vertical-align: inherit;&quot;&gt;&lt;font style=&quot;vertical-align: inherit;&quot;&gt;&lt;font style=&quot;vertical-align: inherit;&quot;&gt;+*..1&lt;/font&gt;&lt;/font&gt;&lt;/font&gt;&lt;/font&gt;" style="resizable=0;html=1;whiteSpace=wrap;align=left;verticalAlign=bottom;" parent="pwogzNSkjw2bM80aaKxA-98" connectable="0" vertex="1">
          <mxGeometry x="-1" relative="1" as="geometry">
            <mxPoint y="-5" as="offset" />
          </mxGeometry>
        </mxCell>
        <mxCell id="pwogzNSkjw2bM80aaKxA-100" value="&lt;font style=&quot;vertical-align: inherit;&quot;&gt;&lt;font style=&quot;vertical-align: inherit;&quot;&gt;&lt;font style=&quot;vertical-align: inherit;&quot;&gt;&lt;font style=&quot;vertical-align: inherit;&quot;&gt;+1..1&lt;/font&gt;&lt;/font&gt;&lt;/font&gt;&lt;/font&gt;" style="resizable=0;html=1;whiteSpace=wrap;align=right;verticalAlign=bottom;" parent="pwogzNSkjw2bM80aaKxA-98" connectable="0" vertex="1">
          <mxGeometry x="1" relative="1" as="geometry">
            <mxPoint y="-9" as="offset" />
          </mxGeometry>
        </mxCell>
        <mxCell id="pwogzNSkjw2bM80aaKxA-101" value="" style="endArrow=none;html=1;rounded=0;entryX=0.5;entryY=0;entryDx=0;entryDy=0;exitX=0.997;exitY=0.901;exitDx=0;exitDy=0;exitPerimeter=0;" parent="1" source="BKr8RLlDopQfZSz1JglN-23" target="BKr8RLlDopQfZSz1JglN-113" edge="1">
          <mxGeometry relative="1" as="geometry">
            <mxPoint x="-300" y="236" as="sourcePoint" />
            <mxPoint x="-220" y="250" as="targetPoint" />
            <Array as="points">
              <mxPoint x="-230" y="240" />
            </Array>
          </mxGeometry>
        </mxCell>
        <mxCell id="pwogzNSkjw2bM80aaKxA-102" value="&lt;font style=&quot;vertical-align: inherit;&quot;&gt;&lt;font style=&quot;vertical-align: inherit;&quot;&gt;&lt;font style=&quot;vertical-align: inherit;&quot;&gt;&lt;font style=&quot;vertical-align: inherit;&quot;&gt;+1..1&lt;/font&gt;&lt;/font&gt;&lt;/font&gt;&lt;/font&gt;" style="resizable=0;html=1;whiteSpace=wrap;align=left;verticalAlign=bottom;" parent="pwogzNSkjw2bM80aaKxA-101" connectable="0" vertex="1">
          <mxGeometry x="-1" relative="1" as="geometry">
            <mxPoint x="10" y="-5" as="offset" />
          </mxGeometry>
        </mxCell>
        <mxCell id="pwogzNSkjw2bM80aaKxA-103" value="+1..1" style="resizable=0;html=1;whiteSpace=wrap;align=right;verticalAlign=bottom;" parent="pwogzNSkjw2bM80aaKxA-101" connectable="0" vertex="1">
          <mxGeometry x="1" relative="1" as="geometry">
            <mxPoint x="30" y="-94" as="offset" />
          </mxGeometry>
        </mxCell>
        <mxCell id="pwogzNSkjw2bM80aaKxA-106" value="&lt;font style=&quot;vertical-align: inherit;&quot;&gt;&lt;font style=&quot;vertical-align: inherit;&quot;&gt;&lt;font style=&quot;vertical-align: inherit;&quot;&gt;&lt;font style=&quot;vertical-align: inherit;&quot;&gt;Start&lt;/font&gt;&lt;/font&gt;&lt;/font&gt;&lt;/font&gt;" style="resizable=0;html=1;whiteSpace=wrap;align=right;verticalAlign=bottom;" parent="1" connectable="0" vertex="1">
          <mxGeometry x="-10.003023204914342" y="-10.002814826834474" as="geometry" />
        </mxCell>
        <mxCell id="pwogzNSkjw2bM80aaKxA-107" value="&lt;font style=&quot;vertical-align: inherit;&quot;&gt;&lt;font style=&quot;vertical-align: inherit;&quot;&gt;&lt;font style=&quot;vertical-align: inherit;&quot;&gt;&lt;font style=&quot;vertical-align: inherit;&quot;&gt;Goal&lt;/font&gt;&lt;/font&gt;&lt;/font&gt;&lt;/font&gt;" style="resizable=0;html=1;whiteSpace=wrap;align=right;verticalAlign=bottom;" parent="1" connectable="0" vertex="1">
          <mxGeometry x="69.99765133154158" y="-10.002649585396412" as="geometry" />
        </mxCell>
        <mxCell id="pwogzNSkjw2bM80aaKxA-108" value="" style="endArrow=none;html=1;rounded=0;entryX=0.557;entryY=1.05;entryDx=0;entryDy=0;entryPerimeter=0;exitX=0.486;exitY=0.038;exitDx=0;exitDy=0;exitPerimeter=0;" parent="1" source="BKr8RLlDopQfZSz1JglN-41" target="BKr8RLlDopQfZSz1JglN-52" edge="1">
          <mxGeometry relative="1" as="geometry">
            <mxPoint x="8" y="330" as="sourcePoint" />
            <mxPoint x="-120" y="224" as="targetPoint" />
          </mxGeometry>
        </mxCell>
        <mxCell id="pwogzNSkjw2bM80aaKxA-109" value="&lt;font style=&quot;vertical-align: inherit;&quot;&gt;&lt;font style=&quot;vertical-align: inherit;&quot;&gt;&lt;font style=&quot;vertical-align: inherit;&quot;&gt;&lt;font style=&quot;vertical-align: inherit;&quot;&gt;+1..*&lt;/font&gt;&lt;/font&gt;&lt;/font&gt;&lt;/font&gt;" style="resizable=0;html=1;whiteSpace=wrap;align=left;verticalAlign=bottom;" parent="pwogzNSkjw2bM80aaKxA-108" connectable="0" vertex="1">
          <mxGeometry x="-1" relative="1" as="geometry">
            <mxPoint x="-40" y="-10" as="offset" />
          </mxGeometry>
        </mxCell>
        <mxCell id="pwogzNSkjw2bM80aaKxA-110" value="&lt;font style=&quot;vertical-align: inherit;&quot;&gt;&lt;font style=&quot;vertical-align: inherit;&quot;&gt;&lt;font style=&quot;vertical-align: inherit;&quot;&gt;&lt;font style=&quot;vertical-align: inherit;&quot;&gt;+1..1&lt;/font&gt;&lt;/font&gt;&lt;/font&gt;&lt;/font&gt;" style="resizable=0;html=1;whiteSpace=wrap;align=right;verticalAlign=bottom;" parent="pwogzNSkjw2bM80aaKxA-108" connectable="0" vertex="1">
          <mxGeometry x="1" relative="1" as="geometry">
            <mxPoint x="-10" y="20" as="offset" />
          </mxGeometry>
        </mxCell>
        <mxCell id="pwogzNSkjw2bM80aaKxA-111" value="" style="endArrow=none;html=1;rounded=0;entryX=0.495;entryY=0.953;entryDx=0;entryDy=0;entryPerimeter=0;exitX=0.5;exitY=0;exitDx=0;exitDy=0;" parent="1" source="BKr8RLlDopQfZSz1JglN-38" target="BKr8RLlDopQfZSz1JglN-37" edge="1">
          <mxGeometry relative="1" as="geometry">
            <mxPoint x="-1" y="710" as="sourcePoint" />
            <mxPoint x="-1" y="630" as="targetPoint" />
          </mxGeometry>
        </mxCell>
        <mxCell id="pwogzNSkjw2bM80aaKxA-112" value="&lt;font style=&quot;vertical-align: inherit;&quot;&gt;&lt;font style=&quot;vertical-align: inherit;&quot;&gt;&lt;font style=&quot;vertical-align: inherit;&quot;&gt;&lt;font style=&quot;vertical-align: inherit;&quot;&gt;+1..1&lt;/font&gt;&lt;/font&gt;&lt;/font&gt;&lt;/font&gt;" style="resizable=0;html=1;whiteSpace=wrap;align=left;verticalAlign=bottom;" parent="pwogzNSkjw2bM80aaKxA-111" connectable="0" vertex="1">
          <mxGeometry x="-1" relative="1" as="geometry">
            <mxPoint x="-40" y="-10" as="offset" />
          </mxGeometry>
        </mxCell>
        <mxCell id="pwogzNSkjw2bM80aaKxA-113" value="&lt;font style=&quot;vertical-align: inherit;&quot;&gt;&lt;font style=&quot;vertical-align: inherit;&quot;&gt;&lt;font style=&quot;vertical-align: inherit;&quot;&gt;&lt;font style=&quot;vertical-align: inherit;&quot;&gt;+1..*&lt;/font&gt;&lt;/font&gt;&lt;/font&gt;&lt;/font&gt;" style="resizable=0;html=1;whiteSpace=wrap;align=right;verticalAlign=bottom;" parent="pwogzNSkjw2bM80aaKxA-111" connectable="0" vertex="1">
          <mxGeometry x="1" relative="1" as="geometry">
            <mxPoint x="-8" y="21" as="offset" />
          </mxGeometry>
        </mxCell>
        <mxCell id="pwogzNSkjw2bM80aaKxA-115" value="Category" style="swimlane;fontStyle=0;childLayout=stackLayout;horizontal=1;startSize=26;fillColor=none;horizontalStack=0;resizeParent=1;resizeParentMax=0;resizeLast=0;collapsible=1;marginBottom=0;whiteSpace=wrap;html=1;" parent="1" vertex="1">
          <mxGeometry x="-780" y="-29" width="140" height="104" as="geometry" />
        </mxCell>
        <mxCell id="pwogzNSkjw2bM80aaKxA-116" value="id" style="text;strokeColor=none;fillColor=none;align=left;verticalAlign=top;spacingLeft=4;spacingRight=4;overflow=hidden;rotatable=0;points=[[0,0.5],[1,0.5]];portConstraint=eastwest;whiteSpace=wrap;html=1;" parent="pwogzNSkjw2bM80aaKxA-115" vertex="1">
          <mxGeometry y="26" width="140" height="26" as="geometry" />
        </mxCell>
        <mxCell id="pwogzNSkjw2bM80aaKxA-117" value="category_name" style="text;strokeColor=none;fillColor=none;align=left;verticalAlign=top;spacingLeft=4;spacingRight=4;overflow=hidden;rotatable=0;points=[[0,0.5],[1,0.5]];portConstraint=eastwest;whiteSpace=wrap;html=1;" parent="pwogzNSkjw2bM80aaKxA-115" vertex="1">
          <mxGeometry y="52" width="140" height="26" as="geometry" />
        </mxCell>
        <mxCell id="pwogzNSkjw2bM80aaKxA-118" value="descripcion_name" style="text;strokeColor=none;fillColor=none;align=left;verticalAlign=top;spacingLeft=4;spacingRight=4;overflow=hidden;rotatable=0;points=[[0,0.5],[1,0.5]];portConstraint=eastwest;whiteSpace=wrap;html=1;" parent="pwogzNSkjw2bM80aaKxA-115" vertex="1">
          <mxGeometry y="78" width="140" height="26" as="geometry" />
        </mxCell>
        <mxCell id="SPeARo3MDbNv_OMqF6WF-2" value="status_booking" style="swimlane;fontStyle=0;childLayout=stackLayout;horizontal=1;startSize=26;fillColor=none;horizontalStack=0;resizeParent=1;resizeParentMax=0;resizeLast=0;collapsible=1;marginBottom=0;whiteSpace=wrap;html=1;" parent="1" vertex="1">
          <mxGeometry x="-310" y="132" width="140" height="80" as="geometry" />
        </mxCell>
        <mxCell id="SPeARo3MDbNv_OMqF6WF-3" value="id" style="text;strokeColor=none;fillColor=none;align=left;verticalAlign=top;spacingLeft=4;spacingRight=4;overflow=hidden;rotatable=0;points=[[0,0.5],[1,0.5]];portConstraint=eastwest;whiteSpace=wrap;html=1;" parent="SPeARo3MDbNv_OMqF6WF-2" vertex="1">
          <mxGeometry y="26" width="140" height="26" as="geometry" />
        </mxCell>
        <mxCell id="SPeARo3MDbNv_OMqF6WF-4" value="name_type" style="text;strokeColor=none;fillColor=none;align=left;verticalAlign=top;spacingLeft=4;spacingRight=4;overflow=hidden;rotatable=0;points=[[0,0.5],[1,0.5]];portConstraint=eastwest;whiteSpace=wrap;html=1;" parent="SPeARo3MDbNv_OMqF6WF-2" vertex="1">
          <mxGeometry y="52" width="140" height="28" as="geometry" />
        </mxCell>
        <mxCell id="SPeARo3MDbNv_OMqF6WF-11" value="" style="endArrow=none;html=1;rounded=0;entryX=0.75;entryY=0;entryDx=0;entryDy=0;exitX=0.829;exitY=0.945;exitDx=0;exitDy=0;exitPerimeter=0;" parent="1" source="SPeARo3MDbNv_OMqF6WF-4" target="BKr8RLlDopQfZSz1JglN-113" edge="1">
          <mxGeometry relative="1" as="geometry">
            <mxPoint x="-200" y="190" as="sourcePoint" />
            <mxPoint x="-200" y="330" as="targetPoint" />
            <Array as="points">
              <mxPoint x="-195" y="250" />
            </Array>
          </mxGeometry>
        </mxCell>
        <mxCell id="SPeARo3MDbNv_OMqF6WF-13" value="+1..*" style="resizable=0;html=1;whiteSpace=wrap;align=right;verticalAlign=bottom;" parent="SPeARo3MDbNv_OMqF6WF-11" connectable="0" vertex="1">
          <mxGeometry x="1" relative="1" as="geometry">
            <mxPoint x="-5" y="-18" as="offset" />
          </mxGeometry>
        </mxCell>
        <mxCell id="SPeARo3MDbNv_OMqF6WF-14" value="&lt;font style=&quot;vertical-align: inherit;&quot;&gt;&lt;font style=&quot;vertical-align: inherit;&quot;&gt;&lt;font style=&quot;vertical-align: inherit;&quot;&gt;&lt;font style=&quot;vertical-align: inherit;&quot;&gt;+1..0&lt;/font&gt;&lt;/font&gt;&lt;/font&gt;&lt;/font&gt;" style="resizable=0;html=1;whiteSpace=wrap;align=right;verticalAlign=bottom;" parent="1" connectable="0" vertex="1">
          <mxGeometry x="-230" y="335.2843904412666" as="geometry" />
        </mxCell>
        <mxCell id="SPeARo3MDbNv_OMqF6WF-15" value="payment_method" style="swimlane;fontStyle=0;childLayout=stackLayout;horizontal=1;startSize=26;fillColor=none;horizontalStack=0;resizeParent=1;resizeParentMax=0;resizeLast=0;collapsible=1;marginBottom=0;whiteSpace=wrap;html=1;" parent="1" vertex="1">
          <mxGeometry x="-230" y="-160" width="140" height="78" as="geometry" />
        </mxCell>
        <mxCell id="SPeARo3MDbNv_OMqF6WF-16" value="id" style="text;strokeColor=none;fillColor=none;align=left;verticalAlign=top;spacingLeft=4;spacingRight=4;overflow=hidden;rotatable=0;points=[[0,0.5],[1,0.5]];portConstraint=eastwest;whiteSpace=wrap;html=1;" parent="SPeARo3MDbNv_OMqF6WF-15" vertex="1">
          <mxGeometry y="26" width="140" height="26" as="geometry" />
        </mxCell>
        <mxCell id="SPeARo3MDbNv_OMqF6WF-17" value="method" style="text;strokeColor=none;fillColor=none;align=left;verticalAlign=top;spacingLeft=4;spacingRight=4;overflow=hidden;rotatable=0;points=[[0,0.5],[1,0.5]];portConstraint=eastwest;whiteSpace=wrap;html=1;" parent="SPeARo3MDbNv_OMqF6WF-15" vertex="1">
          <mxGeometry y="52" width="140" height="26" as="geometry" />
        </mxCell>
        <mxCell id="70qsoSwzKddmSiaN-2yq-6" value="" style="endArrow=none;html=1;rounded=0;exitX=0.45;exitY=-0.058;exitDx=0;exitDy=0;exitPerimeter=0;" edge="1" parent="SPeARo3MDbNv_OMqF6WF-15" source="70qsoSwzKddmSiaN-2yq-1">
          <mxGeometry relative="1" as="geometry">
            <mxPoint x="69" y="118" as="sourcePoint" />
            <mxPoint x="71" y="80" as="targetPoint" />
            <Array as="points" />
          </mxGeometry>
        </mxCell>
        <mxCell id="70qsoSwzKddmSiaN-2yq-7" value="&lt;font style=&quot;vertical-align: inherit;&quot;&gt;&lt;font style=&quot;vertical-align: inherit;&quot;&gt;&lt;font style=&quot;vertical-align: inherit;&quot;&gt;&lt;font style=&quot;vertical-align: inherit;&quot;&gt;+1..1&lt;/font&gt;&lt;/font&gt;&lt;/font&gt;&lt;/font&gt;" style="resizable=0;html=1;whiteSpace=wrap;align=left;verticalAlign=bottom;" connectable="0" vertex="1" parent="70qsoSwzKddmSiaN-2yq-6">
          <mxGeometry x="-1" relative="1" as="geometry">
            <mxPoint x="-43" y="-7" as="offset" />
          </mxGeometry>
        </mxCell>
        <mxCell id="70qsoSwzKddmSiaN-2yq-8" value="&lt;font style=&quot;vertical-align: inherit;&quot;&gt;&lt;font style=&quot;vertical-align: inherit;&quot;&gt;&lt;font style=&quot;vertical-align: inherit;&quot;&gt;&lt;font style=&quot;vertical-align: inherit;&quot;&gt;+1..1&lt;/font&gt;&lt;/font&gt;&lt;/font&gt;&lt;/font&gt;" style="resizable=0;html=1;whiteSpace=wrap;align=right;verticalAlign=bottom;" connectable="0" vertex="1" parent="70qsoSwzKddmSiaN-2yq-6">
          <mxGeometry x="1" relative="1" as="geometry">
            <mxPoint x="-10" y="27" as="offset" />
          </mxGeometry>
        </mxCell>
        <mxCell id="SPeARo3MDbNv_OMqF6WF-19" value="" style="endArrow=none;html=1;rounded=0;entryX=1.031;entryY=-0.118;entryDx=0;entryDy=0;entryPerimeter=0;exitX=0.557;exitY=1.115;exitDx=0;exitDy=0;exitPerimeter=0;" parent="1" source="70qsoSwzKddmSiaN-2yq-4" target="BKr8RLlDopQfZSz1JglN-114" edge="1">
          <mxGeometry relative="1" as="geometry">
            <mxPoint x="-140" y="130" as="sourcePoint" />
            <mxPoint x="-110" y="340" as="targetPoint" />
            <Array as="points">
              <mxPoint x="-140" y="357" />
            </Array>
          </mxGeometry>
        </mxCell>
        <mxCell id="SPeARo3MDbNv_OMqF6WF-20" value="+1..*" style="resizable=0;html=1;whiteSpace=wrap;align=right;verticalAlign=bottom;" parent="SPeARo3MDbNv_OMqF6WF-19" connectable="0" vertex="1">
          <mxGeometry x="1" relative="1" as="geometry">
            <mxPoint x="40" as="offset" />
          </mxGeometry>
        </mxCell>
        <mxCell id="SPeARo3MDbNv_OMqF6WF-22" value="+1..1" style="text;html=1;align=center;verticalAlign=middle;resizable=0;points=[];autosize=1;strokeColor=none;fillColor=none;" parent="1" vertex="1">
          <mxGeometry x="-140" y="147" width="50" height="30" as="geometry" />
        </mxCell>
        <mxCell id="SPeARo3MDbNv_OMqF6WF-35" value="luggage" style="swimlane;fontStyle=0;childLayout=stackLayout;horizontal=1;startSize=26;fillColor=none;horizontalStack=0;resizeParent=1;resizeParentMax=0;resizeLast=0;collapsible=1;marginBottom=0;whiteSpace=wrap;html=1;" parent="1" vertex="1">
          <mxGeometry x="-390.28" y="1167" width="140" height="104" as="geometry" />
        </mxCell>
        <mxCell id="SPeARo3MDbNv_OMqF6WF-36" value="code" style="text;strokeColor=none;fillColor=none;align=left;verticalAlign=top;spacingLeft=4;spacingRight=4;overflow=hidden;rotatable=0;points=[[0,0.5],[1,0.5]];portConstraint=eastwest;whiteSpace=wrap;html=1;" parent="SPeARo3MDbNv_OMqF6WF-35" vertex="1">
          <mxGeometry y="26" width="140" height="26" as="geometry" />
        </mxCell>
        <mxCell id="SPeARo3MDbNv_OMqF6WF-37" value="dimensions" style="text;strokeColor=none;fillColor=none;align=left;verticalAlign=top;spacingLeft=4;spacingRight=4;overflow=hidden;rotatable=0;points=[[0,0.5],[1,0.5]];portConstraint=eastwest;whiteSpace=wrap;html=1;" parent="SPeARo3MDbNv_OMqF6WF-35" vertex="1">
          <mxGeometry y="52" width="140" height="26" as="geometry" />
        </mxCell>
        <mxCell id="SPeARo3MDbNv_OMqF6WF-38" value="weight" style="text;strokeColor=none;fillColor=none;align=left;verticalAlign=top;spacingLeft=4;spacingRight=4;overflow=hidden;rotatable=0;points=[[0,0.5],[1,0.5]];portConstraint=eastwest;whiteSpace=wrap;html=1;" parent="SPeARo3MDbNv_OMqF6WF-35" vertex="1">
          <mxGeometry y="78" width="140" height="26" as="geometry" />
        </mxCell>
        <mxCell id="SPeARo3MDbNv_OMqF6WF-41" value="type_of_luggages" style="swimlane;fontStyle=0;childLayout=stackLayout;horizontal=1;startSize=26;fillColor=none;horizontalStack=0;resizeParent=1;resizeParentMax=0;resizeLast=0;collapsible=1;marginBottom=0;whiteSpace=wrap;html=1;" parent="1" vertex="1">
          <mxGeometry x="-150" y="1154" width="140" height="130" as="geometry" />
        </mxCell>
        <mxCell id="SPeARo3MDbNv_OMqF6WF-42" value="id" style="text;strokeColor=none;fillColor=none;align=left;verticalAlign=top;spacingLeft=4;spacingRight=4;overflow=hidden;rotatable=0;points=[[0,0.5],[1,0.5]];portConstraint=eastwest;whiteSpace=wrap;html=1;" parent="SPeARo3MDbNv_OMqF6WF-41" vertex="1">
          <mxGeometry y="26" width="140" height="26" as="geometry" />
        </mxCell>
        <mxCell id="SPeARo3MDbNv_OMqF6WF-43" value="name_type" style="text;strokeColor=none;fillColor=none;align=left;verticalAlign=top;spacingLeft=4;spacingRight=4;overflow=hidden;rotatable=0;points=[[0,0.5],[1,0.5]];portConstraint=eastwest;whiteSpace=wrap;html=1;" parent="SPeARo3MDbNv_OMqF6WF-41" vertex="1">
          <mxGeometry y="52" width="140" height="26" as="geometry" />
        </mxCell>
        <mxCell id="SPeARo3MDbNv_OMqF6WF-44" value="description" style="text;strokeColor=none;fillColor=none;align=left;verticalAlign=top;spacingLeft=4;spacingRight=4;overflow=hidden;rotatable=0;points=[[0,0.5],[1,0.5]];portConstraint=eastwest;whiteSpace=wrap;html=1;" parent="SPeARo3MDbNv_OMqF6WF-41" vertex="1">
          <mxGeometry y="78" width="140" height="26" as="geometry" />
        </mxCell>
        <mxCell id="SPeARo3MDbNv_OMqF6WF-52" value="tariff" style="text;strokeColor=none;fillColor=none;align=left;verticalAlign=top;spacingLeft=4;spacingRight=4;overflow=hidden;rotatable=0;points=[[0,0.5],[1,0.5]];portConstraint=eastwest;whiteSpace=wrap;html=1;" parent="SPeARo3MDbNv_OMqF6WF-41" vertex="1">
          <mxGeometry y="104" width="140" height="26" as="geometry" />
        </mxCell>
        <mxCell id="SPeARo3MDbNv_OMqF6WF-45" value="" style="endArrow=none;html=1;rounded=0;" parent="1" edge="1">
          <mxGeometry relative="1" as="geometry">
            <mxPoint x="-150" y="1219" as="sourcePoint" />
            <mxPoint x="-250.28" y="1221" as="targetPoint" />
          </mxGeometry>
        </mxCell>
        <mxCell id="SPeARo3MDbNv_OMqF6WF-46" value="+1..1" style="resizable=0;html=1;whiteSpace=wrap;align=left;verticalAlign=bottom;" parent="SPeARo3MDbNv_OMqF6WF-45" connectable="0" vertex="1">
          <mxGeometry x="-1" relative="1" as="geometry">
            <mxPoint x="-30" y="16" as="offset" />
          </mxGeometry>
        </mxCell>
        <mxCell id="SPeARo3MDbNv_OMqF6WF-47" value="&lt;font style=&quot;vertical-align: inherit;&quot;&gt;&lt;font style=&quot;vertical-align: inherit;&quot;&gt;&lt;font style=&quot;vertical-align: inherit;&quot;&gt;&lt;font style=&quot;vertical-align: inherit;&quot;&gt;+0..*&lt;/font&gt;&lt;/font&gt;&lt;/font&gt;&lt;/font&gt;" style="resizable=0;html=1;whiteSpace=wrap;align=right;verticalAlign=bottom;" parent="SPeARo3MDbNv_OMqF6WF-45" connectable="0" vertex="1">
          <mxGeometry x="1" relative="1" as="geometry">
            <mxPoint x="30" y="16" as="offset" />
          </mxGeometry>
        </mxCell>
        <mxCell id="SPeARo3MDbNv_OMqF6WF-48" value="" style="endArrow=none;html=1;rounded=0;exitX=0.5;exitY=0;exitDx=0;exitDy=0;" parent="1" source="SPeARo3MDbNv_OMqF6WF-35" edge="1">
          <mxGeometry relative="1" as="geometry">
            <mxPoint x="-319.86999999999995" y="1135" as="sourcePoint" />
            <mxPoint x="-321.28" y="1077" as="targetPoint" />
          </mxGeometry>
        </mxCell>
        <mxCell id="SPeARo3MDbNv_OMqF6WF-49" value="&lt;font style=&quot;vertical-align: inherit;&quot;&gt;&lt;font style=&quot;vertical-align: inherit;&quot;&gt;&lt;font style=&quot;vertical-align: inherit;&quot;&gt;&lt;font style=&quot;vertical-align: inherit;&quot;&gt;+1..*&lt;/font&gt;&lt;/font&gt;&lt;/font&gt;&lt;/font&gt;" style="resizable=0;html=1;whiteSpace=wrap;align=left;verticalAlign=bottom;" parent="SPeARo3MDbNv_OMqF6WF-48" connectable="0" vertex="1">
          <mxGeometry x="-1" relative="1" as="geometry">
            <mxPoint x="-30" as="offset" />
          </mxGeometry>
        </mxCell>
        <mxCell id="SPeARo3MDbNv_OMqF6WF-50" value="+1..1" style="resizable=0;html=1;whiteSpace=wrap;align=right;verticalAlign=bottom;" parent="SPeARo3MDbNv_OMqF6WF-48" connectable="0" vertex="1">
          <mxGeometry x="1" relative="1" as="geometry">
            <mxPoint x="1" y="30" as="offset" />
          </mxGeometry>
        </mxCell>
        <mxCell id="_gs04YI9UxC3OVI8UAba-1" value="category_assignment" style="swimlane;fontStyle=0;childLayout=stackLayout;horizontal=1;startSize=26;fillColor=none;horizontalStack=0;resizeParent=1;resizeParentMax=0;resizeLast=0;collapsible=1;marginBottom=0;whiteSpace=wrap;html=1;" parent="1" vertex="1">
          <mxGeometry x="-780" y="132" width="140" height="78" as="geometry" />
        </mxCell>
        <mxCell id="_gs04YI9UxC3OVI8UAba-2" value="id" style="text;strokeColor=none;fillColor=none;align=left;verticalAlign=top;spacingLeft=4;spacingRight=4;overflow=hidden;rotatable=0;points=[[0,0.5],[1,0.5]];portConstraint=eastwest;whiteSpace=wrap;html=1;" parent="_gs04YI9UxC3OVI8UAba-1" vertex="1">
          <mxGeometry y="26" width="140" height="26" as="geometry" />
        </mxCell>
        <mxCell id="_gs04YI9UxC3OVI8UAba-7" value="assigment_date" style="text;strokeColor=none;fillColor=none;align=left;verticalAlign=top;spacingLeft=4;spacingRight=4;overflow=hidden;rotatable=0;points=[[0,0.5],[1,0.5]];portConstraint=eastwest;whiteSpace=wrap;html=1;" parent="_gs04YI9UxC3OVI8UAba-1" vertex="1">
          <mxGeometry y="52" width="140" height="26" as="geometry" />
        </mxCell>
        <mxCell id="_gs04YI9UxC3OVI8UAba-6" value="" style="endArrow=none;html=1;rounded=0;entryX=0;entryY=0.5;entryDx=0;entryDy=0;exitX=0.443;exitY=0.92;exitDx=0;exitDy=0;exitPerimeter=0;" parent="1" source="_gs04YI9UxC3OVI8UAba-7" target="BKr8RLlDopQfZSz1JglN-25" edge="1">
          <mxGeometry width="50" height="50" relative="1" as="geometry">
            <mxPoint x="-720" y="263" as="sourcePoint" />
            <mxPoint x="-540" y="280" as="targetPoint" />
            <Array as="points">
              <mxPoint x="-720" y="281" />
            </Array>
          </mxGeometry>
        </mxCell>
        <mxCell id="_gs04YI9UxC3OVI8UAba-8" value="" style="endArrow=none;html=1;rounded=0;entryX=0.429;entryY=1.116;entryDx=0;entryDy=0;entryPerimeter=0;exitX=0.429;exitY=-0.015;exitDx=0;exitDy=0;exitPerimeter=0;" parent="1" source="_gs04YI9UxC3OVI8UAba-1" target="pwogzNSkjw2bM80aaKxA-118" edge="1">
          <mxGeometry width="50" height="50" relative="1" as="geometry">
            <mxPoint x="-780" y="80" as="sourcePoint" />
            <mxPoint x="-650" y="80" as="targetPoint" />
          </mxGeometry>
        </mxCell>
        <mxCell id="_gs04YI9UxC3OVI8UAba-10" value="cancellation_booking" style="swimlane;fontStyle=0;childLayout=stackLayout;horizontal=1;startSize=26;fillColor=none;horizontalStack=0;resizeParent=1;resizeParentMax=0;resizeLast=0;collapsible=1;marginBottom=0;whiteSpace=wrap;html=1;" parent="1" vertex="1">
          <mxGeometry x="-300" y="481" width="140" height="104" as="geometry" />
        </mxCell>
        <mxCell id="_gs04YI9UxC3OVI8UAba-11" value="id" style="text;strokeColor=none;fillColor=none;align=left;verticalAlign=top;spacingLeft=4;spacingRight=4;overflow=hidden;rotatable=0;points=[[0,0.5],[1,0.5]];portConstraint=eastwest;whiteSpace=wrap;html=1;" parent="_gs04YI9UxC3OVI8UAba-10" vertex="1">
          <mxGeometry y="26" width="140" height="26" as="geometry" />
        </mxCell>
        <mxCell id="_gs04YI9UxC3OVI8UAba-12" value="cancellation_date" style="text;strokeColor=none;fillColor=none;align=left;verticalAlign=top;spacingLeft=4;spacingRight=4;overflow=hidden;rotatable=0;points=[[0,0.5],[1,0.5]];portConstraint=eastwest;whiteSpace=wrap;html=1;" parent="_gs04YI9UxC3OVI8UAba-10" vertex="1">
          <mxGeometry y="52" width="140" height="26" as="geometry" />
        </mxCell>
        <mxCell id="_gs04YI9UxC3OVI8UAba-13" value="cancellation_reason" style="text;strokeColor=none;fillColor=none;align=left;verticalAlign=top;spacingLeft=4;spacingRight=4;overflow=hidden;rotatable=0;points=[[0,0.5],[1,0.5]];portConstraint=eastwest;whiteSpace=wrap;html=1;" parent="_gs04YI9UxC3OVI8UAba-10" vertex="1">
          <mxGeometry y="78" width="140" height="26" as="geometry" />
        </mxCell>
        <mxCell id="_gs04YI9UxC3OVI8UAba-14" value="" style="endArrow=none;html=1;rounded=0;entryX=0.5;entryY=1.096;entryDx=0;entryDy=0;entryPerimeter=0;exitX=0.5;exitY=0;exitDx=0;exitDy=0;" parent="1" source="_gs04YI9UxC3OVI8UAba-10" target="BKr8RLlDopQfZSz1JglN-115" edge="1">
          <mxGeometry relative="1" as="geometry">
            <mxPoint x="-230" y="523" as="sourcePoint" />
            <mxPoint x="-113" y="430" as="targetPoint" />
          </mxGeometry>
        </mxCell>
        <mxCell id="_gs04YI9UxC3OVI8UAba-15" value="&lt;font style=&quot;vertical-align: inherit;&quot;&gt;&lt;font style=&quot;vertical-align: inherit;&quot;&gt;&lt;font style=&quot;vertical-align: inherit;&quot;&gt;&lt;font style=&quot;vertical-align: inherit;&quot;&gt;+1..1&lt;/font&gt;&lt;/font&gt;&lt;/font&gt;&lt;/font&gt;" style="resizable=0;html=1;whiteSpace=wrap;align=left;verticalAlign=bottom;" parent="_gs04YI9UxC3OVI8UAba-14" connectable="0" vertex="1">
          <mxGeometry x="-1" relative="1" as="geometry">
            <mxPoint x="-40" y="-10" as="offset" />
          </mxGeometry>
        </mxCell>
        <mxCell id="_gs04YI9UxC3OVI8UAba-16" value="&lt;font style=&quot;vertical-align: inherit;&quot;&gt;&lt;font style=&quot;vertical-align: inherit;&quot;&gt;&lt;font style=&quot;vertical-align: inherit;&quot;&gt;&lt;font style=&quot;vertical-align: inherit;&quot;&gt;+1..1&lt;/font&gt;&lt;/font&gt;&lt;/font&gt;&lt;/font&gt;" style="resizable=0;html=1;whiteSpace=wrap;align=right;verticalAlign=bottom;" parent="_gs04YI9UxC3OVI8UAba-14" connectable="0" vertex="1">
          <mxGeometry x="1" relative="1" as="geometry">
            <mxPoint x="-8" y="26" as="offset" />
          </mxGeometry>
        </mxCell>
        <mxCell id="_gs04YI9UxC3OVI8UAba-20" value="status_flight" style="swimlane;fontStyle=0;childLayout=stackLayout;horizontal=1;startSize=26;fillColor=none;horizontalStack=0;resizeParent=1;resizeParentMax=0;resizeLast=0;collapsible=1;marginBottom=0;whiteSpace=wrap;html=1;" parent="1" vertex="1">
          <mxGeometry x="160" y="430" width="140" height="78" as="geometry" />
        </mxCell>
        <mxCell id="_gs04YI9UxC3OVI8UAba-21" value="id" style="text;strokeColor=none;fillColor=none;align=left;verticalAlign=top;spacingLeft=4;spacingRight=4;overflow=hidden;rotatable=0;points=[[0,0.5],[1,0.5]];portConstraint=eastwest;whiteSpace=wrap;html=1;" parent="_gs04YI9UxC3OVI8UAba-20" vertex="1">
          <mxGeometry y="26" width="140" height="26" as="geometry" />
        </mxCell>
        <mxCell id="_gs04YI9UxC3OVI8UAba-22" value="status_name" style="text;strokeColor=none;fillColor=none;align=left;verticalAlign=top;spacingLeft=4;spacingRight=4;overflow=hidden;rotatable=0;points=[[0,0.5],[1,0.5]];portConstraint=eastwest;whiteSpace=wrap;html=1;" parent="_gs04YI9UxC3OVI8UAba-20" vertex="1">
          <mxGeometry y="52" width="140" height="26" as="geometry" />
        </mxCell>
        <mxCell id="_gs04YI9UxC3OVI8UAba-24" value="" style="endArrow=none;html=1;rounded=0;entryX=0.436;entryY=1.192;entryDx=0;entryDy=0;entryPerimeter=0;exitX=0.714;exitY=1.028;exitDx=0;exitDy=0;exitPerimeter=0;" parent="1" source="BKr8RLlDopQfZSz1JglN-46" target="_gs04YI9UxC3OVI8UAba-22" edge="1">
          <mxGeometry relative="1" as="geometry">
            <mxPoint x="70" y="553" as="sourcePoint" />
            <mxPoint x="219.2199999999998" y="534.2339999999999" as="targetPoint" />
            <Array as="points">
              <mxPoint x="40" y="560" />
              <mxPoint x="220" y="560" />
            </Array>
          </mxGeometry>
        </mxCell>
        <mxCell id="_gs04YI9UxC3OVI8UAba-25" value="&lt;font style=&quot;vertical-align: inherit;&quot;&gt;&lt;font style=&quot;vertical-align: inherit;&quot;&gt;&lt;font style=&quot;vertical-align: inherit;&quot;&gt;&lt;font style=&quot;vertical-align: inherit;&quot;&gt;+*..0&lt;/font&gt;&lt;/font&gt;&lt;/font&gt;&lt;/font&gt;" style="resizable=0;html=1;whiteSpace=wrap;align=left;verticalAlign=bottom;" parent="_gs04YI9UxC3OVI8UAba-24" connectable="0" vertex="1">
          <mxGeometry x="-1" relative="1" as="geometry">
            <mxPoint y="18" as="offset" />
          </mxGeometry>
        </mxCell>
        <mxCell id="_gs04YI9UxC3OVI8UAba-26" value="&lt;font style=&quot;vertical-align: inherit;&quot;&gt;&lt;font style=&quot;vertical-align: inherit;&quot;&gt;&lt;font style=&quot;vertical-align: inherit;&quot;&gt;&lt;font style=&quot;vertical-align: inherit;&quot;&gt;+1..1&lt;/font&gt;&lt;/font&gt;&lt;/font&gt;&lt;/font&gt;" style="resizable=0;html=1;whiteSpace=wrap;align=right;verticalAlign=bottom;" parent="_gs04YI9UxC3OVI8UAba-24" connectable="0" vertex="1">
          <mxGeometry x="1" relative="1" as="geometry">
            <mxPoint x="1" y="20" as="offset" />
          </mxGeometry>
        </mxCell>
        <mxCell id="_gs04YI9UxC3OVI8UAba-27" value="penalty_cancellation" style="swimlane;fontStyle=0;childLayout=stackLayout;horizontal=1;startSize=26;fillColor=none;horizontalStack=0;resizeParent=1;resizeParentMax=0;resizeLast=0;collapsible=1;marginBottom=0;whiteSpace=wrap;html=1;" parent="1" vertex="1">
          <mxGeometry x="-510" y="481" width="140" height="104" as="geometry" />
        </mxCell>
        <mxCell id="_gs04YI9UxC3OVI8UAba-28" value="id" style="text;strokeColor=none;fillColor=none;align=left;verticalAlign=top;spacingLeft=4;spacingRight=4;overflow=hidden;rotatable=0;points=[[0,0.5],[1,0.5]];portConstraint=eastwest;whiteSpace=wrap;html=1;" parent="_gs04YI9UxC3OVI8UAba-27" vertex="1">
          <mxGeometry y="26" width="140" height="26" as="geometry" />
        </mxCell>
        <mxCell id="_gs04YI9UxC3OVI8UAba-81" value="cancellation_type" style="text;strokeColor=none;fillColor=none;align=left;verticalAlign=top;spacingLeft=4;spacingRight=4;overflow=hidden;rotatable=0;points=[[0,0.5],[1,0.5]];portConstraint=eastwest;whiteSpace=wrap;html=1;" parent="_gs04YI9UxC3OVI8UAba-27" vertex="1">
          <mxGeometry y="52" width="140" height="26" as="geometry" />
        </mxCell>
        <mxCell id="_gs04YI9UxC3OVI8UAba-30" value="amount" style="text;strokeColor=none;fillColor=none;align=left;verticalAlign=top;spacingLeft=4;spacingRight=4;overflow=hidden;rotatable=0;points=[[0,0.5],[1,0.5]];portConstraint=eastwest;whiteSpace=wrap;html=1;" parent="_gs04YI9UxC3OVI8UAba-27" vertex="1">
          <mxGeometry y="78" width="140" height="26" as="geometry" />
        </mxCell>
        <mxCell id="_gs04YI9UxC3OVI8UAba-31" value="status_assignment" style="swimlane;fontStyle=0;childLayout=stackLayout;horizontal=1;startSize=26;fillColor=none;horizontalStack=0;resizeParent=1;resizeParentMax=0;resizeLast=0;collapsible=1;marginBottom=0;whiteSpace=wrap;html=1;" parent="1" vertex="1">
          <mxGeometry x="-580" y="750" width="140" height="78" as="geometry" />
        </mxCell>
        <mxCell id="_gs04YI9UxC3OVI8UAba-32" value="id" style="text;strokeColor=none;fillColor=none;align=left;verticalAlign=top;spacingLeft=4;spacingRight=4;overflow=hidden;rotatable=0;points=[[0,0.5],[1,0.5]];portConstraint=eastwest;whiteSpace=wrap;html=1;" parent="_gs04YI9UxC3OVI8UAba-31" vertex="1">
          <mxGeometry y="26" width="140" height="26" as="geometry" />
        </mxCell>
        <mxCell id="_gs04YI9UxC3OVI8UAba-33" value="assigment_date" style="text;strokeColor=none;fillColor=none;align=left;verticalAlign=top;spacingLeft=4;spacingRight=4;overflow=hidden;rotatable=0;points=[[0,0.5],[1,0.5]];portConstraint=eastwest;whiteSpace=wrap;html=1;" parent="_gs04YI9UxC3OVI8UAba-31" vertex="1">
          <mxGeometry y="52" width="140" height="26" as="geometry" />
        </mxCell>
        <mxCell id="_gs04YI9UxC3OVI8UAba-35" value="" style="endArrow=none;html=1;rounded=0;entryX=0.641;entryY=1.122;entryDx=0;entryDy=0;entryPerimeter=0;exitX=0.426;exitY=-0.021;exitDx=0;exitDy=0;exitPerimeter=0;" parent="1" source="_gs04YI9UxC3OVI8UAba-31" target="BKr8RLlDopQfZSz1JglN-21" edge="1">
          <mxGeometry relative="1" as="geometry">
            <mxPoint x="-520" y="740" as="sourcePoint" />
            <mxPoint x="-583" y="876" as="targetPoint" />
            <Array as="points">
              <mxPoint x="-520" y="700" />
              <mxPoint x="-580" y="700" />
            </Array>
          </mxGeometry>
        </mxCell>
        <mxCell id="_gs04YI9UxC3OVI8UAba-36" value="&lt;font style=&quot;vertical-align: inherit;&quot;&gt;&lt;font style=&quot;vertical-align: inherit;&quot;&gt;&lt;font style=&quot;vertical-align: inherit;&quot;&gt;&lt;font style=&quot;vertical-align: inherit;&quot;&gt;+*..0&lt;/font&gt;&lt;/font&gt;&lt;/font&gt;&lt;/font&gt;" style="resizable=0;html=1;whiteSpace=wrap;align=left;verticalAlign=bottom;" parent="_gs04YI9UxC3OVI8UAba-35" connectable="0" vertex="1">
          <mxGeometry x="-1" relative="1" as="geometry">
            <mxPoint x="-30" y="-10" as="offset" />
          </mxGeometry>
        </mxCell>
        <mxCell id="_gs04YI9UxC3OVI8UAba-37" value="&lt;font style=&quot;vertical-align: inherit;&quot;&gt;&lt;font style=&quot;vertical-align: inherit;&quot;&gt;&lt;font style=&quot;vertical-align: inherit;&quot;&gt;&lt;font style=&quot;vertical-align: inherit;&quot;&gt;+1..1&lt;/font&gt;&lt;/font&gt;&lt;/font&gt;&lt;/font&gt;" style="resizable=0;html=1;whiteSpace=wrap;align=right;verticalAlign=bottom;" parent="_gs04YI9UxC3OVI8UAba-35" connectable="0" vertex="1">
          <mxGeometry x="1" relative="1" as="geometry">
            <mxPoint x="40" y="19" as="offset" />
          </mxGeometry>
        </mxCell>
        <mxCell id="_gs04YI9UxC3OVI8UAba-44" value="type_flight" style="swimlane;fontStyle=0;childLayout=stackLayout;horizontal=1;startSize=26;fillColor=none;horizontalStack=0;resizeParent=1;resizeParentMax=0;resizeLast=0;collapsible=1;marginBottom=0;whiteSpace=wrap;html=1;" parent="1" vertex="1">
          <mxGeometry x="160" y="294" width="140" height="78" as="geometry" />
        </mxCell>
        <mxCell id="_gs04YI9UxC3OVI8UAba-45" value="id" style="text;strokeColor=none;fillColor=none;align=left;verticalAlign=top;spacingLeft=4;spacingRight=4;overflow=hidden;rotatable=0;points=[[0,0.5],[1,0.5]];portConstraint=eastwest;whiteSpace=wrap;html=1;" parent="_gs04YI9UxC3OVI8UAba-44" vertex="1">
          <mxGeometry y="26" width="140" height="26" as="geometry" />
        </mxCell>
        <mxCell id="_gs04YI9UxC3OVI8UAba-46" value="name_type" style="text;strokeColor=none;fillColor=none;align=left;verticalAlign=top;spacingLeft=4;spacingRight=4;overflow=hidden;rotatable=0;points=[[0,0.5],[1,0.5]];portConstraint=eastwest;whiteSpace=wrap;html=1;" parent="_gs04YI9UxC3OVI8UAba-44" vertex="1">
          <mxGeometry y="52" width="140" height="26" as="geometry" />
        </mxCell>
        <mxCell id="_gs04YI9UxC3OVI8UAba-48" value="" style="endArrow=none;html=1;rounded=0;exitX=0.75;exitY=0;exitDx=0;exitDy=0;entryX=0.429;entryY=-0.038;entryDx=0;entryDy=0;entryPerimeter=0;" parent="1" source="BKr8RLlDopQfZSz1JglN-41" target="_gs04YI9UxC3OVI8UAba-44" edge="1">
          <mxGeometry relative="1" as="geometry">
            <mxPoint x="43" y="305" as="sourcePoint" />
            <mxPoint x="240" y="260" as="targetPoint" />
            <Array as="points">
              <mxPoint x="45" y="270" />
              <mxPoint x="220" y="270" />
            </Array>
          </mxGeometry>
        </mxCell>
        <mxCell id="_gs04YI9UxC3OVI8UAba-49" value="&lt;font style=&quot;vertical-align: inherit;&quot;&gt;&lt;font style=&quot;vertical-align: inherit;&quot;&gt;&lt;font style=&quot;vertical-align: inherit;&quot;&gt;&lt;font style=&quot;vertical-align: inherit;&quot;&gt;+*..0&lt;/font&gt;&lt;/font&gt;&lt;/font&gt;&lt;/font&gt;" style="resizable=0;html=1;whiteSpace=wrap;align=left;verticalAlign=bottom;" parent="_gs04YI9UxC3OVI8UAba-48" connectable="0" vertex="1">
          <mxGeometry x="-1" relative="1" as="geometry">
            <mxPoint x="-30" y="-10" as="offset" />
          </mxGeometry>
        </mxCell>
        <mxCell id="_gs04YI9UxC3OVI8UAba-50" value="&lt;font style=&quot;vertical-align: inherit;&quot;&gt;&lt;font style=&quot;vertical-align: inherit;&quot;&gt;&lt;font style=&quot;vertical-align: inherit;&quot;&gt;&lt;font style=&quot;vertical-align: inherit;&quot;&gt;+1..1&lt;/font&gt;&lt;/font&gt;&lt;/font&gt;&lt;/font&gt;" style="resizable=0;html=1;whiteSpace=wrap;align=right;verticalAlign=bottom;" parent="_gs04YI9UxC3OVI8UAba-48" connectable="0" vertex="1">
          <mxGeometry x="1" relative="1" as="geometry">
            <mxPoint x="-8" y="1" as="offset" />
          </mxGeometry>
        </mxCell>
        <mxCell id="_gs04YI9UxC3OVI8UAba-59" value="" style="endArrow=none;html=1;rounded=0;exitX=0;exitY=0.269;exitDx=0;exitDy=0;exitPerimeter=0;" parent="1" source="_gs04YI9UxC3OVI8UAba-12" edge="1">
          <mxGeometry relative="1" as="geometry">
            <mxPoint x="-300" y="440" as="sourcePoint" />
            <mxPoint x="-370" y="540" as="targetPoint" />
          </mxGeometry>
        </mxCell>
        <mxCell id="_gs04YI9UxC3OVI8UAba-60" value="&lt;font style=&quot;vertical-align: inherit;&quot;&gt;&lt;font style=&quot;vertical-align: inherit;&quot;&gt;&lt;font style=&quot;vertical-align: inherit;&quot;&gt;&lt;font style=&quot;vertical-align: inherit;&quot;&gt;+1..*&lt;/font&gt;&lt;/font&gt;&lt;/font&gt;&lt;/font&gt;" style="resizable=0;html=1;whiteSpace=wrap;align=left;verticalAlign=bottom;" parent="_gs04YI9UxC3OVI8UAba-59" connectable="0" vertex="1">
          <mxGeometry x="-1" relative="1" as="geometry">
            <mxPoint x="-30" as="offset" />
          </mxGeometry>
        </mxCell>
        <mxCell id="_gs04YI9UxC3OVI8UAba-61" value="+1..1" style="resizable=0;html=1;whiteSpace=wrap;align=right;verticalAlign=bottom;" parent="_gs04YI9UxC3OVI8UAba-59" connectable="0" vertex="1">
          <mxGeometry x="1" relative="1" as="geometry">
            <mxPoint x="30" as="offset" />
          </mxGeometry>
        </mxCell>
        <mxCell id="_gs04YI9UxC3OVI8UAba-62" value="+1..1" style="text;html=1;align=center;verticalAlign=middle;resizable=0;points=[];autosize=1;strokeColor=none;fillColor=none;" parent="1" vertex="1">
          <mxGeometry x="-730" y="75" width="50" height="30" as="geometry" />
        </mxCell>
        <mxCell id="_gs04YI9UxC3OVI8UAba-63" value="+1..*" style="text;html=1;align=center;verticalAlign=middle;resizable=0;points=[];autosize=1;strokeColor=none;fillColor=none;" parent="1" vertex="1">
          <mxGeometry x="-730" y="102" width="50" height="30" as="geometry" />
        </mxCell>
        <mxCell id="_gs04YI9UxC3OVI8UAba-64" value="+1..1" style="text;html=1;align=center;verticalAlign=middle;resizable=0;points=[];autosize=1;strokeColor=none;fillColor=none;" parent="1" vertex="1">
          <mxGeometry x="-535" y="248" width="50" height="30" as="geometry" />
        </mxCell>
        <mxCell id="_gs04YI9UxC3OVI8UAba-65" value="+1..*" style="text;html=1;align=center;verticalAlign=middle;resizable=0;points=[];autosize=1;strokeColor=none;fillColor=none;" parent="1" vertex="1">
          <mxGeometry x="-775" y="227" width="50" height="30" as="geometry" />
        </mxCell>
        <mxCell id="_gs04YI9UxC3OVI8UAba-66" value="status_ticket" style="swimlane;fontStyle=0;childLayout=stackLayout;horizontal=1;startSize=26;fillColor=none;horizontalStack=0;resizeParent=1;resizeParentMax=0;resizeLast=0;collapsible=1;marginBottom=0;whiteSpace=wrap;html=1;" parent="1" vertex="1">
          <mxGeometry x="-580" y="930" width="140" height="78" as="geometry" />
        </mxCell>
        <mxCell id="_gs04YI9UxC3OVI8UAba-67" value="id" style="text;strokeColor=none;fillColor=none;align=left;verticalAlign=top;spacingLeft=4;spacingRight=4;overflow=hidden;rotatable=0;points=[[0,0.5],[1,0.5]];portConstraint=eastwest;whiteSpace=wrap;html=1;" parent="_gs04YI9UxC3OVI8UAba-66" vertex="1">
          <mxGeometry y="26" width="140" height="26" as="geometry" />
        </mxCell>
        <mxCell id="_gs04YI9UxC3OVI8UAba-68" value="status_name" style="text;strokeColor=none;fillColor=none;align=left;verticalAlign=top;spacingLeft=4;spacingRight=4;overflow=hidden;rotatable=0;points=[[0,0.5],[1,0.5]];portConstraint=eastwest;whiteSpace=wrap;html=1;" parent="_gs04YI9UxC3OVI8UAba-66" vertex="1">
          <mxGeometry y="52" width="140" height="26" as="geometry" />
        </mxCell>
        <mxCell id="_gs04YI9UxC3OVI8UAba-70" value="" style="endArrow=none;html=1;rounded=0;entryX=0.494;entryY=1.052;entryDx=0;entryDy=0;entryPerimeter=0;exitX=0.5;exitY=0;exitDx=0;exitDy=0;" parent="1" source="_gs04YI9UxC3OVI8UAba-66" target="_gs04YI9UxC3OVI8UAba-33" edge="1">
          <mxGeometry relative="1" as="geometry">
            <mxPoint x="-508" y="922" as="sourcePoint" />
            <mxPoint x="-510" y="854" as="targetPoint" />
          </mxGeometry>
        </mxCell>
        <mxCell id="_gs04YI9UxC3OVI8UAba-71" value="&lt;font style=&quot;vertical-align: inherit;&quot;&gt;&lt;font style=&quot;vertical-align: inherit;&quot;&gt;&lt;font style=&quot;vertical-align: inherit;&quot;&gt;&lt;font style=&quot;vertical-align: inherit;&quot;&gt;+1..1&lt;/font&gt;&lt;/font&gt;&lt;/font&gt;&lt;/font&gt;" style="resizable=0;html=1;whiteSpace=wrap;align=left;verticalAlign=bottom;" parent="_gs04YI9UxC3OVI8UAba-70" connectable="0" vertex="1">
          <mxGeometry x="-1" relative="1" as="geometry">
            <mxPoint x="-30" as="offset" />
          </mxGeometry>
        </mxCell>
        <mxCell id="_gs04YI9UxC3OVI8UAba-72" value="&lt;font style=&quot;vertical-align: inherit;&quot;&gt;&lt;font style=&quot;vertical-align: inherit;&quot;&gt;&lt;font style=&quot;vertical-align: inherit;&quot;&gt;&lt;font style=&quot;vertical-align: inherit;&quot;&gt;+1..*&lt;/font&gt;&lt;/font&gt;&lt;/font&gt;&lt;/font&gt;" style="resizable=0;html=1;whiteSpace=wrap;align=right;verticalAlign=bottom;" parent="_gs04YI9UxC3OVI8UAba-70" connectable="0" vertex="1">
          <mxGeometry x="1" relative="1" as="geometry">
            <mxPoint x="1" y="18" as="offset" />
          </mxGeometry>
        </mxCell>
        <mxCell id="_gs04YI9UxC3OVI8UAba-73" value="check_in" style="swimlane;fontStyle=0;childLayout=stackLayout;horizontal=1;startSize=26;fillColor=none;horizontalStack=0;resizeParent=1;resizeParentMax=0;resizeLast=0;collapsible=1;marginBottom=0;whiteSpace=wrap;html=1;" parent="1" vertex="1">
          <mxGeometry x="-910" y="587" width="140" height="78" as="geometry" />
        </mxCell>
        <mxCell id="_gs04YI9UxC3OVI8UAba-74" value="id" style="text;strokeColor=none;fillColor=none;align=left;verticalAlign=top;spacingLeft=4;spacingRight=4;overflow=hidden;rotatable=0;points=[[0,0.5],[1,0.5]];portConstraint=eastwest;whiteSpace=wrap;html=1;" parent="_gs04YI9UxC3OVI8UAba-73" vertex="1">
          <mxGeometry y="26" width="140" height="26" as="geometry" />
        </mxCell>
        <mxCell id="_gs04YI9UxC3OVI8UAba-75" value="check_in_time" style="text;strokeColor=none;fillColor=none;align=left;verticalAlign=top;spacingLeft=4;spacingRight=4;overflow=hidden;rotatable=0;points=[[0,0.5],[1,0.5]];portConstraint=eastwest;whiteSpace=wrap;html=1;" parent="_gs04YI9UxC3OVI8UAba-73" vertex="1">
          <mxGeometry y="52" width="140" height="26" as="geometry" />
        </mxCell>
        <mxCell id="_gs04YI9UxC3OVI8UAba-77" value="" style="endArrow=none;html=1;rounded=0;exitX=-0.013;exitY=-0.017;exitDx=0;exitDy=0;exitPerimeter=0;" parent="1" source="BKr8RLlDopQfZSz1JglN-20" edge="1">
          <mxGeometry relative="1" as="geometry">
            <mxPoint x="-700" y="624" as="sourcePoint" />
            <mxPoint x="-770" y="624" as="targetPoint" />
          </mxGeometry>
        </mxCell>
        <mxCell id="_gs04YI9UxC3OVI8UAba-78" value="&lt;font style=&quot;vertical-align: inherit;&quot;&gt;&lt;font style=&quot;vertical-align: inherit;&quot;&gt;&lt;font style=&quot;vertical-align: inherit;&quot;&gt;&lt;font style=&quot;vertical-align: inherit;&quot;&gt;+1..*&lt;/font&gt;&lt;/font&gt;&lt;/font&gt;&lt;/font&gt;" style="resizable=0;html=1;whiteSpace=wrap;align=left;verticalAlign=bottom;" parent="_gs04YI9UxC3OVI8UAba-77" connectable="0" vertex="1">
          <mxGeometry x="-1" relative="1" as="geometry">
            <mxPoint x="-30" as="offset" />
          </mxGeometry>
        </mxCell>
        <mxCell id="_gs04YI9UxC3OVI8UAba-79" value="+1..1" style="resizable=0;html=1;whiteSpace=wrap;align=right;verticalAlign=bottom;" parent="_gs04YI9UxC3OVI8UAba-77" connectable="0" vertex="1">
          <mxGeometry x="1" relative="1" as="geometry">
            <mxPoint x="30" as="offset" />
          </mxGeometry>
        </mxCell>
        <mxCell id="_gs04YI9UxC3OVI8UAba-92" value="" style="endArrow=none;html=1;rounded=0;exitX=0;exitY=0.5;exitDx=0;exitDy=0;entryX=0.5;entryY=0;entryDx=0;entryDy=0;" parent="1" source="BKr8RLlDopQfZSz1JglN-115" target="BKr8RLlDopQfZSz1JglN-19" edge="1">
          <mxGeometry relative="1" as="geometry">
            <mxPoint x="-530" y="400" as="sourcePoint" />
            <mxPoint x="-600" y="400" as="targetPoint" />
            <Array as="points">
              <mxPoint x="-600" y="400" />
            </Array>
          </mxGeometry>
        </mxCell>
        <mxCell id="_gs04YI9UxC3OVI8UAba-93" value="&lt;font style=&quot;vertical-align: inherit;&quot;&gt;&lt;font style=&quot;vertical-align: inherit;&quot;&gt;&lt;font style=&quot;vertical-align: inherit;&quot;&gt;&lt;font style=&quot;vertical-align: inherit;&quot;&gt;+1..1&lt;/font&gt;&lt;/font&gt;&lt;/font&gt;&lt;/font&gt;" style="resizable=0;html=1;whiteSpace=wrap;align=left;verticalAlign=bottom;" parent="_gs04YI9UxC3OVI8UAba-92" connectable="0" vertex="1">
          <mxGeometry x="-1" relative="1" as="geometry">
            <mxPoint x="-30" as="offset" />
          </mxGeometry>
        </mxCell>
        <mxCell id="_gs04YI9UxC3OVI8UAba-94" value="+1..*" style="resizable=0;html=1;whiteSpace=wrap;align=right;verticalAlign=bottom;" parent="_gs04YI9UxC3OVI8UAba-92" connectable="0" vertex="1">
          <mxGeometry x="1" relative="1" as="geometry">
            <mxPoint x="30" as="offset" />
          </mxGeometry>
        </mxCell>
        <mxCell id="70qsoSwzKddmSiaN-2yq-1" value="payment&lt;div&gt;&lt;br&gt;&lt;/div&gt;" style="swimlane;fontStyle=0;childLayout=stackLayout;horizontal=1;startSize=26;fillColor=none;horizontalStack=0;resizeParent=1;resizeParentMax=0;resizeLast=0;collapsible=1;marginBottom=0;whiteSpace=wrap;html=1;" vertex="1" parent="1">
          <mxGeometry x="-220" y="-10" width="140" height="104" as="geometry" />
        </mxCell>
        <mxCell id="70qsoSwzKddmSiaN-2yq-2" value="id" style="text;strokeColor=none;fillColor=none;align=left;verticalAlign=top;spacingLeft=4;spacingRight=4;overflow=hidden;rotatable=0;points=[[0,0.5],[1,0.5]];portConstraint=eastwest;whiteSpace=wrap;html=1;" vertex="1" parent="70qsoSwzKddmSiaN-2yq-1">
          <mxGeometry y="26" width="140" height="26" as="geometry" />
        </mxCell>
        <mxCell id="70qsoSwzKddmSiaN-2yq-3" value="date_payment" style="text;strokeColor=none;fillColor=none;align=left;verticalAlign=top;spacingLeft=4;spacingRight=4;overflow=hidden;rotatable=0;points=[[0,0.5],[1,0.5]];portConstraint=eastwest;whiteSpace=wrap;html=1;" vertex="1" parent="70qsoSwzKddmSiaN-2yq-1">
          <mxGeometry y="52" width="140" height="26" as="geometry" />
        </mxCell>
        <mxCell id="70qsoSwzKddmSiaN-2yq-4" value="amount" style="text;strokeColor=none;fillColor=none;align=left;verticalAlign=top;spacingLeft=4;spacingRight=4;overflow=hidden;rotatable=0;points=[[0,0.5],[1,0.5]];portConstraint=eastwest;whiteSpace=wrap;html=1;" vertex="1" parent="70qsoSwzKddmSiaN-2yq-1">
          <mxGeometry y="78" width="140" height="26" as="geometry" />
        </mxCell>
        <mxCell id="70qsoSwzKddmSiaN-2yq-10" value="boarding_pass" style="swimlane;fontStyle=0;childLayout=stackLayout;horizontal=1;startSize=26;fillColor=none;horizontalStack=0;resizeParent=1;resizeParentMax=0;resizeLast=0;collapsible=1;marginBottom=0;whiteSpace=wrap;html=1;" vertex="1" parent="1">
          <mxGeometry x="-915" y="737" width="140" height="104" as="geometry" />
        </mxCell>
        <mxCell id="70qsoSwzKddmSiaN-2yq-11" value="id" style="text;strokeColor=none;fillColor=none;align=left;verticalAlign=top;spacingLeft=4;spacingRight=4;overflow=hidden;rotatable=0;points=[[0,0.5],[1,0.5]];portConstraint=eastwest;whiteSpace=wrap;html=1;" vertex="1" parent="70qsoSwzKddmSiaN-2yq-10">
          <mxGeometry y="26" width="140" height="26" as="geometry" />
        </mxCell>
        <mxCell id="70qsoSwzKddmSiaN-2yq-12" value="gate" style="text;strokeColor=none;fillColor=none;align=left;verticalAlign=top;spacingLeft=4;spacingRight=4;overflow=hidden;rotatable=0;points=[[0,0.5],[1,0.5]];portConstraint=eastwest;whiteSpace=wrap;html=1;" vertex="1" parent="70qsoSwzKddmSiaN-2yq-10">
          <mxGeometry y="52" width="140" height="26" as="geometry" />
        </mxCell>
        <mxCell id="70qsoSwzKddmSiaN-2yq-13" value="boarding_time" style="text;strokeColor=none;fillColor=none;align=left;verticalAlign=top;spacingLeft=4;spacingRight=4;overflow=hidden;rotatable=0;points=[[0,0.5],[1,0.5]];portConstraint=eastwest;whiteSpace=wrap;html=1;" vertex="1" parent="70qsoSwzKddmSiaN-2yq-10">
          <mxGeometry y="78" width="140" height="26" as="geometry" />
        </mxCell>
        <mxCell id="70qsoSwzKddmSiaN-2yq-14" value="" style="endArrow=none;html=1;rounded=0;exitX=0.835;exitY=0.008;exitDx=0;exitDy=0;exitPerimeter=0;entryX=0.491;entryY=1.054;entryDx=0;entryDy=0;entryPerimeter=0;" edge="1" parent="1">
          <mxGeometry relative="1" as="geometry">
            <mxPoint x="-851" y="731" as="sourcePoint" />
            <mxPoint x="-849" y="665" as="targetPoint" />
            <Array as="points" />
          </mxGeometry>
        </mxCell>
        <mxCell id="70qsoSwzKddmSiaN-2yq-15" value="&lt;font style=&quot;vertical-align: inherit;&quot;&gt;&lt;font style=&quot;vertical-align: inherit;&quot;&gt;&lt;font style=&quot;vertical-align: inherit;&quot;&gt;&lt;font style=&quot;vertical-align: inherit;&quot;&gt;+1..1&lt;/font&gt;&lt;/font&gt;&lt;/font&gt;&lt;/font&gt;" style="resizable=0;html=1;whiteSpace=wrap;align=left;verticalAlign=bottom;" connectable="0" vertex="1" parent="70qsoSwzKddmSiaN-2yq-14">
          <mxGeometry x="-1" relative="1" as="geometry">
            <mxPoint x="-43" y="-7" as="offset" />
          </mxGeometry>
        </mxCell>
        <mxCell id="70qsoSwzKddmSiaN-2yq-16" value="&lt;font style=&quot;vertical-align: inherit;&quot;&gt;&lt;font style=&quot;vertical-align: inherit;&quot;&gt;&lt;font style=&quot;vertical-align: inherit;&quot;&gt;&lt;font style=&quot;vertical-align: inherit;&quot;&gt;+1..1&lt;/font&gt;&lt;/font&gt;&lt;/font&gt;&lt;/font&gt;" style="resizable=0;html=1;whiteSpace=wrap;align=right;verticalAlign=bottom;" connectable="0" vertex="1" parent="70qsoSwzKddmSiaN-2yq-14">
          <mxGeometry x="1" relative="1" as="geometry">
            <mxPoint x="-10" y="27" as="offset" />
          </mxGeometry>
        </mxCell>
        <mxCell id="70qsoSwzKddmSiaN-2yq-17" value="document" style="swimlane;fontStyle=0;childLayout=stackLayout;horizontal=1;startSize=26;fillColor=none;horizontalStack=0;resizeParent=1;resizeParentMax=0;resizeLast=0;collapsible=1;marginBottom=0;whiteSpace=wrap;html=1;" vertex="1" parent="1">
          <mxGeometry x="-720" y="296.28" width="140" height="130" as="geometry" />
        </mxCell>
        <mxCell id="70qsoSwzKddmSiaN-2yq-18" value="id" style="text;strokeColor=none;fillColor=none;align=left;verticalAlign=top;spacingLeft=4;spacingRight=4;overflow=hidden;rotatable=0;points=[[0,0.5],[1,0.5]];portConstraint=eastwest;whiteSpace=wrap;html=1;" vertex="1" parent="70qsoSwzKddmSiaN-2yq-17">
          <mxGeometry y="26" width="140" height="26" as="geometry" />
        </mxCell>
        <mxCell id="70qsoSwzKddmSiaN-2yq-39" value="issue_date" style="text;strokeColor=none;fillColor=none;align=left;verticalAlign=top;spacingLeft=4;spacingRight=4;overflow=hidden;rotatable=0;points=[[0,0.5],[1,0.5]];portConstraint=eastwest;whiteSpace=wrap;html=1;" vertex="1" parent="70qsoSwzKddmSiaN-2yq-17">
          <mxGeometry y="52" width="140" height="26" as="geometry" />
        </mxCell>
        <mxCell id="70qsoSwzKddmSiaN-2yq-40" value="due_date" style="text;strokeColor=none;fillColor=none;align=left;verticalAlign=top;spacingLeft=4;spacingRight=4;overflow=hidden;rotatable=0;points=[[0,0.5],[1,0.5]];portConstraint=eastwest;whiteSpace=wrap;html=1;" vertex="1" parent="70qsoSwzKddmSiaN-2yq-17">
          <mxGeometry y="78" width="140" height="26" as="geometry" />
        </mxCell>
        <mxCell id="70qsoSwzKddmSiaN-2yq-19" value="documnet_number" style="text;strokeColor=none;fillColor=none;align=left;verticalAlign=top;spacingLeft=4;spacingRight=4;overflow=hidden;rotatable=0;points=[[0,0.5],[1,0.5]];portConstraint=eastwest;whiteSpace=wrap;html=1;" vertex="1" parent="70qsoSwzKddmSiaN-2yq-17">
          <mxGeometry y="104" width="140" height="26" as="geometry" />
        </mxCell>
        <mxCell id="70qsoSwzKddmSiaN-2yq-21" value="type_document&lt;div&gt;&lt;br&gt;&lt;/div&gt;" style="swimlane;fontStyle=0;childLayout=stackLayout;horizontal=1;startSize=26;fillColor=none;horizontalStack=0;resizeParent=1;resizeParentMax=0;resizeLast=0;collapsible=1;marginBottom=0;whiteSpace=wrap;html=1;" vertex="1" parent="1">
          <mxGeometry x="-830" y="430" width="140" height="78" as="geometry" />
        </mxCell>
        <mxCell id="70qsoSwzKddmSiaN-2yq-22" value="id" style="text;strokeColor=none;fillColor=none;align=left;verticalAlign=top;spacingLeft=4;spacingRight=4;overflow=hidden;rotatable=0;points=[[0,0.5],[1,0.5]];portConstraint=eastwest;whiteSpace=wrap;html=1;" vertex="1" parent="70qsoSwzKddmSiaN-2yq-21">
          <mxGeometry y="26" width="140" height="26" as="geometry" />
        </mxCell>
        <mxCell id="70qsoSwzKddmSiaN-2yq-23" value="name_document" style="text;strokeColor=none;fillColor=none;align=left;verticalAlign=top;spacingLeft=4;spacingRight=4;overflow=hidden;rotatable=0;points=[[0,0.5],[1,0.5]];portConstraint=eastwest;whiteSpace=wrap;html=1;" vertex="1" parent="70qsoSwzKddmSiaN-2yq-21">
          <mxGeometry y="52" width="140" height="26" as="geometry" />
        </mxCell>
        <mxCell id="70qsoSwzKddmSiaN-2yq-25" value="" style="endArrow=none;html=1;rounded=0;entryX=0.464;entryY=-0.09;entryDx=0;entryDy=0;entryPerimeter=0;exitX=-0.021;exitY=0.028;exitDx=0;exitDy=0;exitPerimeter=0;" edge="1" parent="1" source="70qsoSwzKddmSiaN-2yq-18" target="70qsoSwzKddmSiaN-2yq-21">
          <mxGeometry relative="1" as="geometry">
            <mxPoint x="-750" y="370" as="sourcePoint" />
            <mxPoint x="-827" y="392.63" as="targetPoint" />
            <Array as="points">
              <mxPoint x="-760" y="323" />
            </Array>
          </mxGeometry>
        </mxCell>
        <mxCell id="70qsoSwzKddmSiaN-2yq-26" value="&lt;font style=&quot;vertical-align: inherit;&quot;&gt;&lt;font style=&quot;vertical-align: inherit;&quot;&gt;&lt;font style=&quot;vertical-align: inherit;&quot;&gt;&lt;font style=&quot;vertical-align: inherit;&quot;&gt;+1..*&lt;/font&gt;&lt;/font&gt;&lt;/font&gt;&lt;/font&gt;" style="resizable=0;html=1;whiteSpace=wrap;align=left;verticalAlign=bottom;" connectable="0" vertex="1" parent="70qsoSwzKddmSiaN-2yq-25">
          <mxGeometry x="-1" relative="1" as="geometry">
            <mxPoint x="-77" y="17" as="offset" />
          </mxGeometry>
        </mxCell>
        <mxCell id="70qsoSwzKddmSiaN-2yq-27" value="&lt;font style=&quot;vertical-align: inherit;&quot;&gt;&lt;font style=&quot;vertical-align: inherit;&quot;&gt;&lt;font style=&quot;vertical-align: inherit;&quot;&gt;&lt;font style=&quot;vertical-align: inherit;&quot;&gt;+1..1&lt;/font&gt;&lt;/font&gt;&lt;/font&gt;&lt;/font&gt;" style="resizable=0;html=1;whiteSpace=wrap;align=right;verticalAlign=bottom;" connectable="0" vertex="1" parent="70qsoSwzKddmSiaN-2yq-25">
          <mxGeometry x="1" relative="1" as="geometry">
            <mxPoint x="-15" y="-13" as="offset" />
          </mxGeometry>
        </mxCell>
        <mxCell id="70qsoSwzKddmSiaN-2yq-29" value="" style="endArrow=none;html=1;rounded=0;exitX=0.014;exitY=-0.154;exitDx=0;exitDy=0;exitPerimeter=0;entryX=1;entryY=0.5;entryDx=0;entryDy=0;" edge="1" parent="1" source="BKr8RLlDopQfZSz1JglN-115" target="70qsoSwzKddmSiaN-2yq-18">
          <mxGeometry relative="1" as="geometry">
            <mxPoint x="-510" y="372.5" as="sourcePoint" />
            <mxPoint x="-580" y="372.5" as="targetPoint" />
            <Array as="points">
              <mxPoint x="-520" y="380" />
              <mxPoint x="-520" y="335" />
            </Array>
          </mxGeometry>
        </mxCell>
        <mxCell id="70qsoSwzKddmSiaN-2yq-30" value="&lt;font style=&quot;vertical-align: inherit;&quot;&gt;&lt;font style=&quot;vertical-align: inherit;&quot;&gt;&lt;font style=&quot;vertical-align: inherit;&quot;&gt;&lt;font style=&quot;vertical-align: inherit;&quot;&gt;+1..1&lt;/font&gt;&lt;/font&gt;&lt;/font&gt;&lt;/font&gt;" style="resizable=0;html=1;whiteSpace=wrap;align=left;verticalAlign=bottom;" connectable="0" vertex="1" parent="70qsoSwzKddmSiaN-2yq-29">
          <mxGeometry x="-1" relative="1" as="geometry">
            <mxPoint x="-30" as="offset" />
          </mxGeometry>
        </mxCell>
        <mxCell id="70qsoSwzKddmSiaN-2yq-31" value="+1..1" style="resizable=0;html=1;whiteSpace=wrap;align=right;verticalAlign=bottom;" connectable="0" vertex="1" parent="70qsoSwzKddmSiaN-2yq-29">
          <mxGeometry x="1" relative="1" as="geometry">
            <mxPoint x="30" as="offset" />
          </mxGeometry>
        </mxCell>
      </root>
    </mxGraphModel>
  </diagram>
</mxfile>
